0
SECTION
2
HEADER
9
$INSUNITS
70
4
9
$ACADVER
1
AC1014
9
$HANDSEED
5
FFFF
0
ENDSEC
0
SECTION
2
TABLES
0
TABLE
2
VPORT
5
8
100
AcDbSymbolTable
0
ENDTAB
0
TABLE
2
LTYPE
5
5
100
AcDbSymbolTable
0
LTYPE
5
14
100
AcDbSymbolTableRecord
100
AcDbLinetypeTableRecord
2
BYBLOCK
70
0
0
LTYPE
5
15
100
AcDbSymbolTableRecord
100
AcDbLinetypeTableRecord
2
BYLAYER
70
0
0
ENDTAB
0
TABLE
2
LAYER
5
2
100
AcDbSymbolTable
70
2
0
LAYER
5
50
100
AcDbSymbolTableRecord
100
AcDbLayerTableRecord
2
0
70
0
6
CONTINUOUS
0
ENDTAB
0
TABLE
2
STYLE
5
3
100
AcDbSymbolTable
70
1
0
STYLE
5
11
100
AcDbSymbolTableRecord
100
AcDbTextStyleTableRecord
2
STANDARD
70
0
0
ENDTAB
0
TABLE
2
VIEW
5
6
100
AcDbSymbolTable
70
0
0
ENDTAB
0
TABLE
2
UCS
5
7
100
AcDbSymbolTable
70
0
0
ENDTAB
0
TABLE
2
APPID
5
9
100
AcDbSymbolTable
70
2
0
APPID
5
12
100
AcDbSymbolTableRecord
100
AcDbRegAppTableRecord
2
ACAD
70
0
0
ENDTAB
0
TABLE
2
DIMSTYLE
5
A
100
AcDbSymbolTable
70
1
0
ENDTAB
0
TABLE
2
BLOCK_RECORD
5
1
100
AcDbSymbolTable
70
1
0
BLOCK_RECORD
5
1F
100
AcDbSymbolTableRecord
100
AcDbBlockTableRecord
2
*MODEL_SPACE
0
BLOCK_RECORD
5
1B
100
AcDbSymbolTableRecord
100
AcDbBlockTableRecord
2
*PAPER_SPACE
0
ENDTAB
0
ENDSEC
0
SECTION
2
BLOCKS
0
BLOCK
5
20
100
AcDbEntity
100
AcDbBlockBegin
2
*MODEL_SPACE
0
ENDBLK
5
21
100
AcDbEntity
100
AcDbBlockEnd
0
BLOCK
5
1C
100
AcDbEntity
100
AcDbBlockBegin
2
*PAPER_SPACE
0
ENDBLK
5
1D
100
AcDbEntity
100
AcDbBlockEnd
0
ENDSEC
0
SECTION
2
ENTITIES
0
ARC
5
100
100
AcDbEntity
8
0
100
AcDbCircle
10
-147.90012987020933
20
-3.9046883753521828
30
0
40
0.49999999999999989
210
0
220
0
230
1
100
AcDbArc
50
-90
51
0
0
LINE
5
101
100
AcDbEntity
8
0
100
AcDbLine
10
-147.4001298702093
20
-3.9046883753521828
30
0
11
-147.40012987020933
21
0.095313477078531883
31
0
0
ARC
5
102
100
AcDbEntity
8
0
100
AcDbCircle
10
-146.90012987020933
20
0.095313477078531897
30
0
40
0.49999999999999989
210
0
220
0
230
1
100
AcDbArc
50
90.000000701067947
51
180
0
LINE
5
103
100
AcDbEntity
8
0
100
AcDbLine
10
-146.9001298763273
20
0.59531347707853177
30
0
11
-118.91
21
0.59531381956499996
31
0
0
ARC
5
104
100
AcDbEntity
8
0
100
AcDbCircle
10
-118.91
20
2.5953300000000001
30
0
40
2.0000161804350003
210
0
220
0
230
1
100
AcDbArc
50
270
51
326.94710729950896
0
ARC
5
105
100
AcDbEntity
8
0
100
AcDbCircle
10
-114.29999000000001
20
-0.40469000000000005
30
0
40
3.5000012423430031
210
0
220
-0
230
1
100
AcDbArc
50
33.053767198092729
51
146.94449547991226
0
ARC
5
106
100
AcDbEntity
8
0
100
AcDbCircle
10
-109.69000000000001
20
2.59531
30
0
40
1.9999999999999971
210
0
220
0
230
1
100
AcDbArc
50
213.05576523519824
51
270.0000000000004
0
LINE
5
107
100
AcDbEntity
8
0
100
AcDbLine
10
-109.69
20
0.59530999999999978
30
0
11
-24.338800000000003
21
0.59531000000000001
31
0
0
ARC
5
108
100
AcDbEntity
8
0
100
AcDbCircle
10
-24.338790000000003
20
2.0000000000000005e-05
30
0
40
0.59529000008399957
210
0
220
-0
230
1
100
AcDbArc
50
37.933314931674715
51
90.000962485166994
0
ARC
5
109
100
AcDbEntity
8
0
100
AcDbCircle
10
-23.12002
20
0.94996000000000014
30
0
40
0.94995636104595071
210
0
220
0
230
1
100
AcDbArc
50
217.93401883784128
51
270.00120627772731
0
LINE
5
110
100
AcDbEntity
8
0
100
AcDbLine
10
-23.120000000000005
20
-4.6476711368370616e-13
30
0
11
-14.479999999981001
21
1.803317499993e-06
31
0
0
ARC
5
111
100
AcDbEntity
8
0
100
AcDbCircle
10
-14.479990000000003
20
0.94999999999999996
30
0
40
0.94999819673513142
210
0
220
0
230
1
100
AcDbArc
50
269.99939688653268
51
322.0644491656185
0
ARC
5
112
100
AcDbEntity
8
0
100
AcDbCircle
10
-13.261190000000001
20
-2.0000000000000005e-05
30
0
40
0.59532889372200015
210
0
220
0
230
1
100
AcDbArc
50
90.000962408315289
51
142.06483200610106
0
LINE
5
113
100
AcDbEntity
8
0
100
AcDbLine
10
-13.261199999854833
20
0.59530889363801542
30
0
11
-4.1671900000000006
21
0.59531000000000001
31
0
0
ARC
5
114
100
AcDbEntity
8
0
100
AcDbCircle
10
-4.1671700000000005
20
2.97655
30
0
40
2.3812400000839897
210
0
220
0
230
1
100
AcDbArc
50
-90.000481226415758
51
0.00048122624200480179
0
LINE
5
115
100
AcDbEntity
8
0
100
AcDbLine
10
-1.7859299999999891
20
2.9765699999999997
30
0
11
-1.7859299999830003
21
91.678200000000004
31
0
0
ARC
5
116
100
AcDbEntity
8
0
100
AcDbCircle
10
-4.7624899999999997
20
91.678200000000004
30
0
40
2.9765600000169994
210
0
220
0
230
1
100
AcDbArc
50
0
51
90.000192483654686
0
LINE
5
117
100
AcDbEntity
8
0
100
AcDbLine
10
-4.7624999997414896
20
94.654799999996925
30
0
11
-109.69000000002001
21
94.654801324270011
31
0
0
ARC
5
118
100
AcDbEntity
8
0
100
AcDbCircle
10
-109.68997000000002
20
92.654759999999996
30
0
40
2.0000413244950033
210
0
220
0
230
1
100
AcDbArc
50
90.000859419507862
51
146.94781586083374
0
ARC
5
119
100
AcDbEntity
8
0
100
AcDbCircle
10
-114.29999000000001
20
95.654809999999998
30
0
40
3.5000062978230027
210
0
220
0
230
1
100
AcDbArc
50
213.05372585556054
51
326.94376823860949
0
ARC
5
120
100
AcDbEntity
8
0
100
AcDbCircle
10
-118.91
20
92.654799999999994
30
0
40
2.000000000000004
210
0
220
-0
230
1
100
AcDbArc
50
33.055765187163566
51
90
0
LINE
5
121
100
AcDbEntity
8
0
100
AcDbLine
10
-118.91
20
94.654800000000009
30
0
11
-185.89000000002
21
94.654801324270011
31
0
0
ARC
5
122
100
AcDbEntity
8
0
100
AcDbCircle
10
-185.88997000000003
20
92.654759999999996
30
0
40
2.0000413244950033
210
0
220
0
230
1
100
AcDbArc
50
90.000859419507037
51
146.94781586083292
0
ARC
5
123
100
AcDbEntity
8
0
100
AcDbCircle
10
-190.49999
20
95.654809999999998
30
0
40
3.5000062978229924
210
0
220
0
230
1
100
AcDbArc
50
213.05372585556157
51
326.94376823860938
0
ARC
5
124
100
AcDbEntity
8
0
100
AcDbCircle
10
-195.11000000000001
20
92.654799999999994
30
0
40
1.9999999999999898
210
0
220
-0
230
1
100
AcDbArc
50
33.055765187161981
51
90
0
LINE
5
125
100
AcDbEntity
8
0
100
AcDbLine
10
-195.11000000000001
20
94.654800000000009
30
0
11
-300.63299000000001
21
94.654740000060002
31
0
0
ARC
5
126
100
AcDbEntity
8
0
100
AcDbCircle
10
-300.63299999999998
20
92.273510000000002
30
0
40
2.3812300000810014
210
0
220
-0
230
1
100
AcDbArc
50
89.999759385782284
51
180.00024070209514
0
LINE
5
127
100
AcDbEntity
8
0
100
AcDbLine
10
-303.01400000000001
20
92.273499996493427
30
0
11
-303.01423
21
2.9765500000000067
31
0
0
ARC
5
128
100
AcDbEntity
8
0
100
AcDbCircle
10
-300.63301999999999
20
2.9765199999999998
30
0
40
2.3812100001889753
210
0
220
0
230
1
100
AcDbArc
50
179.99927815116999
51
270.00048123247865
0
LINE
5
129
100
AcDbEntity
8
0
100
AcDbLine
10
-300.63299999999998
20
0.59530999989499045
30
0
11
-195.11000000000001
21
0.59531381956499996
31
0
0
ARC
5
130
100
AcDbEntity
8
0
100
AcDbCircle
10
-195.11000000000001
20
2.5953300000000001
30
0
40
2.0000161804350003
210
0
220
0
230
1
100
AcDbArc
50
270
51
326.94710729950907
0
ARC
5
131
100
AcDbEntity
8
0
100
AcDbCircle
10
-190.49999
20
-0.40469000000000005
30
0
40
3.500001242342996
210
0
220
-0
230
1
100
AcDbArc
50
33.053767198093055
51
146.94449547991269
0
ARC
5
132
100
AcDbEntity
8
0
100
AcDbCircle
10
-185.88999999999999
20
2.59531
30
0
40
1.9999999999999947
210
0
220
0
230
1
100
AcDbArc
50
213.05576523519835
51
270
0
LINE
5
133
100
AcDbEntity
8
0
100
AcDbLine
10
-185.88999999999999
20
0.59530999999999989
30
0
11
-157.90012987632733
21
0.59531334248283108
31
0
0
ARC
5
134
100
AcDbEntity
8
0
100
AcDbCircle
10
-157.90012987020933
20
0.095313342482831465
30
0
40
0.50000000000000711
210
-0
220
0
230
1
100
AcDbArc
50
0
51
90.000000701071201
0
LINE
5
135
100
AcDbEntity
8
0
100
AcDbLine
10
-157.40012987020933
20
0.095313342482831062
30
0
11
-157.40012987020933
21
-3.9046883753521824
31
0
0
ARC
5
136
100
AcDbEntity
8
0
100
AcDbCircle
10
-156.90012987020933
20
-3.9046883753521824
30
0
40
0.49999999999998934
210
0
220
0
230
1
100
AcDbArc
50
180
51
270
0
LINE
5
137
100
AcDbEntity
8
0
100
AcDbLine
10
-156.90012987020933
20
-4.4046883753521717
30
0
11
-147.90012987020933
21
-4.4046883753521824
31
0
0
CIRCLE
5
138
100
AcDbEntity
8
0
100
AcDbCircle
10
-300.35500000000002
20
85.724999999999994
30
0
40
0.85089999999999999
210
0
220
0
230
1
0
CIRCLE
5
139
100
AcDbEntity
8
0
100
AcDbCircle
10
-295.27499999999998
20
85.724999999999994
30
0
40
1.9939
210
0
220
0
230
1
0
CIRCLE
5
140
100
AcDbEntity
8
0
100
AcDbCircle
10
-290.19499999999999
20
85.724999999999994
30
0
40
0.85089999999999999
210
0
220
0
230
1
0
CIRCLE
5
141
100
AcDbEntity
8
0
100
AcDbCircle
10
-291.46499999999997
20
83.185000000000002
30
0
40
0.74929999999999997
210
0
220
0
230
1
0
CIRCLE
5
142
100
AcDbEntity
8
0
100
AcDbCircle
10
-281.30500000000001
20
85.724999999999994
30
0
40
0.85089999999999999
210
0
220
0
230
1
0
CIRCLE
5
143
100
AcDbEntity
8
0
100
AcDbCircle
10
-276.22500000000002
20
85.724999999999994
30
0
40
1.9939
210
0
220
0
230
1
0
CIRCLE
5
144
100
AcDbEntity
8
0
100
AcDbCircle
10
-271.14499999999998
20
85.724999999999994
30
0
40
0.85089999999999999
210
0
220
0
230
1
0
LWPOLYLINE
5
145
100
AcDbEntity
8
0
100
AcDbPolyline
90
4
70
1
43
0.0
10
-267.95022399999999
20
86.975072000000011
42
0.99999999999999989
10
-267.95022399999999
20
84.475072000000011
10
-265.45022399999999
20
84.475072000000011
42
0.99999999999999989
10
-265.45022399999999
20
86.975072000000011
0
CIRCLE
5
146
100
AcDbEntity
8
0
100
AcDbCircle
10
-272.41500000000002
20
83.185000000000002
30
0
40
0.74929999999999997
210
0
220
0
230
1
0
CIRCLE
5
147
100
AcDbEntity
8
0
100
AcDbCircle
10
-262.255
20
85.724999999999994
30
0
40
0.85089999999999999
210
0
220
0
230
1
0
CIRCLE
5
148
100
AcDbEntity
8
0
100
AcDbCircle
10
-257.17500000000001
20
85.724999999999994
30
0
40
1.9939
210
0
220
0
230
1
0
CIRCLE
5
149
100
AcDbEntity
8
0
100
AcDbCircle
10
-252.09500000000003
20
85.724999999999994
30
0
40
0.85089999999999999
210
0
220
0
230
1
0
CIRCLE
5
150
100
AcDbEntity
8
0
100
AcDbCircle
10
-253.36500000000001
20
83.185000000000002
30
0
40
0.74929999999999997
210
0
220
0
230
1
0
CIRCLE
5
151
100
AcDbEntity
8
0
100
AcDbCircle
10
-243.20500000000004
20
85.724999999999994
30
0
40
0.85089999999999999
210
0
220
0
230
1
0
CIRCLE
5
152
100
AcDbEntity
8
0
100
AcDbCircle
10
-238.125
20
85.724999999999994
30
0
40
1.9939
210
0
220
0
230
1
0
LWPOLYLINE
5
153
100
AcDbEntity
8
0
100
AcDbPolyline
90
4
70
1
43
0.0
10
-234.22940272783956
20
83.929394785714337
42
8.1490166190440601
10
-233.89012103820008
20
83.802193938579933
42
0.36995040430699222
10
-231.5430295211205
20
84.909933290528329
42
1.3433167979906482
10
-231.54302952112454
20
86.540210709457995
42
1.4295365536747335
0
CIRCLE
5
154
100
AcDbEntity
8
0
100
AcDbCircle
10
-229.55269600000003
20
83.185072000000005
30
0
40
0.74929999999999997
210
0
220
0
230
1
0
CIRCLE
5
155
100
AcDbEntity
8
0
100
AcDbCircle
10
-297.815
20
80.64500000000001
30
0
40
0.74929999999999997
210
0
220
0
230
1
0
CIRCLE
5
156
100
AcDbEntity
8
0
100
AcDbCircle
10
-278.76499999999999
20
80.64500000000001
30
0
40
0.74929999999999997
210
0
220
0
230
1
0
CIRCLE
5
157
100
AcDbEntity
8
0
100
AcDbCircle
10
-259.71499999999997
20
80.64500000000001
30
0
40
0.74929999999999997
210
0
220
0
230
1
0
CIRCLE
5
158
100
AcDbEntity
8
0
100
AcDbCircle
10
-240.66500000000002
20
80.64500000000001
30
0
40
0.74929999999999997
210
0
220
0
230
1
0
CIRCLE
5
159
100
AcDbEntity
8
0
100
AcDbCircle
10
-235.90269599999999
20
80.645071999999999
30
0
40
0.74929999999999997
210
0
220
0
230
1
0
CIRCLE
5
160
100
AcDbEntity
8
0
100
AcDbCircle
10
-228.75894000000002
20
80.645071999999999
30
0
40
0.74929999999999997
210
0
220
0
230
1
0
CIRCLE
5
161
100
AcDbEntity
8
0
100
AcDbCircle
10
-200.05674999999999
20
92.709999999999994
30
0
40
1.5239999999999998
210
0
220
0
230
1
0
CIRCLE
5
162
100
AcDbEntity
8
0
100
AcDbCircle
10
-213.99500000000003
20
85.724999999999994
30
0
40
0.85089999999999999
210
0
220
0
230
1
0
CIRCLE
5
163
100
AcDbEntity
8
0
100
AcDbCircle
10
-209.86767200000003
20
85.725072000000011
30
0
40
0.85089999999999999
210
0
220
0
230
1
0
LWPOLYLINE
5
164
100
AcDbEntity
8
0
100
AcDbPolyline
90
12
70
1
43
0.0
10
-228.03860647887009
20
84.909933290529978
42
0.47984115495322105
10
-225.02831400000406
20
84.12568244828546
42
0.54788338005721182
10
-221.88588531825059
20
85.317514026769715
42
0.3544188981206865
10
-220.89471668086577
20
84.909973367687428
42
0.17677463479751862
10
-219.94197819203922
20
83.92945383670704
42
8.149016542024377
10
-219.60271573353856
20
83.802201696855377
42
2.174558067276434
10
-220.89465981245922
20
86.540153590992617
42
0.35443853159835725
10
-221.88588531825533
20
86.132629973218897
42
0.54788338005859349
10
-225.02831399999928
20
87.324461551710982
42
0.47984115495425184
10
-228.03860647886756
20
86.540210709468127
42
0.16994013175449088
10
-228.60019199999925
20
86.514519338321904
42
1.4800176570173078
10
-228.60019199999729
20
84.935624661676727
42
0.16994013175289122
0
CIRCLE
5
165
100
AcDbEntity
8
0
100
AcDbCircle
10
-222.40894
20
83.185072000000005
30
0
40
0.74929999999999997
210
0
220
0
230
1
0
CIRCLE
5
166
100
AcDbEntity
8
0
100
AcDbCircle
10
-215.26499999999999
20
83.185000000000002
30
0
40
0.74929999999999997
210
0
220
0
230
1
0
CIRCLE
5
167
100
AcDbEntity
8
0
100
AcDbCircle
10
-194.94500000000002
20
85.724999999999994
30
0
40
0.85089999999999999
210
0
220
0
230
1
0
LWPOLYLINE
5
168
100
AcDbEntity
8
0
100
AcDbPolyline
90
10
70
1
43
0.0
10
-206.73947468174225
20
85.317514026769544
42
0.54788338005588977
10
-203.59704600000407
20
84.125682448285474
42
0.33135326343015181
10
-201.21575835414805
20
84.12570898457264
42
0.047578489337634401
10
-200.89198320138001
20
83.929456255469631
42
8.1482515032414096
10
-200.55268913198833
20
83.802194396206048
42
0.43246273952976444
10
-198.07323293463327
20
85.317271496488218
42
3.9180968919936943
10
-198.07325469437956
20
86.132832651940106
42
0.54784488067488779
10
-201.21566164584073
20
87.324363015418982
42
0.33137004032017947
10
-203.59704599999927
20
87.324461551710982
42
0.54788338005881232
10
-206.73947468174302
20
86.1326299732184
42
3.920535048349381
0
CIRCLE
5
169
100
AcDbEntity
8
0
100
AcDbCircle
10
-198.59642000000002
20
83.185072000000005
30
0
40
0.74929999999999997
210
0
220
0
230
1
0
CIRCLE
5
170
100
AcDbEntity
8
0
100
AcDbCircle
10
-196.215
20
83.185000000000002
30
0
40
0.74929999999999997
210
0
220
0
230
1
0
CIRCLE
5
171
100
AcDbEntity
8
0
100
AcDbCircle
10
-181.00675000000001
20
92.709999999999994
30
0
40
1.5239999999999998
210
0
220
0
230
1
0
LWPOLYLINE
5
172
100
AcDbEntity
8
0
100
AcDbPolyline
90
4
70
1
43
0.0
10
-189.368908
20
86.975072000000011
42
0.99999999999999989
10
-189.368908
20
84.475072000000011
10
-186.868908
20
84.475072000000011
42
0.99999999999999989
10
-186.868908
20
86.975072000000011
0
CIRCLE
5
173
100
AcDbEntity
8
0
100
AcDbCircle
10
-167.95764000000003
20
86.479133000000004
30
0
40
0.42500000000000004
210
0
220
0
230
1
0
CIRCLE
5
174
100
AcDbEntity
8
0
100
AcDbCircle
10
-165.41764000000001
20
86.479133000000004
30
0
40
0.42500000000000004
210
0
220
0
230
1
0
CIRCLE
5
175
100
AcDbEntity
8
0
100
AcDbCircle
10
-154.78138000000001
20
86.725071999999997
30
0
40
0.59999999999999998
210
0
220
0
230
1
0
CIRCLE
5
176
100
AcDbEntity
8
0
100
AcDbCircle
10
-167.95764000000003
20
83.939132999999998
30
0
40
0.42500000000000004
210
0
220
0
230
1
0
CIRCLE
5
177
100
AcDbEntity
8
0
100
AcDbCircle
10
-165.41764000000001
20
83.939132999999998
30
0
40
0.42500000000000004
210
0
220
0
230
1
0
CIRCLE
5
178
100
AcDbEntity
8
0
100
AcDbCircle
10
-154.78138000000001
20
84.725072000000011
30
0
40
0.59999999999999998
210
0
220
0
230
1
0
CIRCLE
5
179
100
AcDbEntity
8
0
100
AcDbCircle
10
-226.37768800000003
20
80.645071999999999
30
0
40
0.74929999999999997
210
0
220
0
230
1
0
CIRCLE
5
180
100
AcDbEntity
8
0
100
AcDbCircle
10
-221.61500000000004
20
80.64500000000001
30
0
40
0.74929999999999997
210
0
220
0
230
1
0
CIRCLE
5
181
100
AcDbEntity
8
0
100
AcDbCircle
10
-207.32767200000001
20
80.645071999999999
30
0
40
0.74929999999999997
210
0
220
0
230
1
0
CIRCLE
5
182
100
AcDbEntity
8
0
100
AcDbCircle
10
-204.94641999999999
20
80.645071999999999
30
0
40
0.74929999999999997
210
0
220
0
230
1
0
CIRCLE
5
183
100
AcDbEntity
8
0
100
AcDbCircle
10
-202.56500000000003
20
80.64500000000001
30
0
40
0.74929999999999997
210
0
220
0
230
1
0
CIRCLE
5
184
100
AcDbEntity
8
0
100
AcDbCircle
10
-200.05674999999999
20
77.469999999999999
30
0
40
1.9939
210
0
220
0
230
1
0
CIRCLE
5
185
100
AcDbEntity
8
0
100
AcDbCircle
10
-181.00675000000001
20
77.469999999999999
30
0
40
1.9939
210
0
220
0
230
1
0
CIRCLE
5
186
100
AcDbEntity
8
0
100
AcDbCircle
10
-167.95764000000003
20
81.39913300000002
30
0
40
0.42500000000000004
210
0
220
0
230
1
0
CIRCLE
5
187
100
AcDbEntity
8
0
100
AcDbCircle
10
-165.41764000000001
20
81.39913300000002
30
0
40
0.42500000000000004
210
0
220
0
230
1
0
CIRCLE
5
188
100
AcDbEntity
8
0
100
AcDbCircle
10
-300.35500000000002
20
66.675000000000011
30
0
40
0.85089999999999999
210
0
220
0
230
1
0
CIRCLE
5
189
100
AcDbEntity
8
0
100
AcDbCircle
10
-295.27499999999998
20
66.675000000000011
30
0
40
1.9939
210
0
220
0
230
1
0
CIRCLE
5
190
100
AcDbEntity
8
0
100
AcDbCircle
10
-290.19499999999999
20
66.675000000000011
30
0
40
0.85089999999999999
210
0
220
0
230
1
0
CIRCLE
5
191
100
AcDbEntity
8
0
100
AcDbCircle
10
-281.30500000000001
20
66.675000000000011
30
0
40
0.85089999999999999
210
0
220
0
230
1
0
CIRCLE
5
192
100
AcDbEntity
8
0
100
AcDbCircle
10
-276.22500000000002
20
66.675000000000011
30
0
40
1.9939
210
0
220
0
230
1
0
CIRCLE
5
193
100
AcDbEntity
8
0
100
AcDbCircle
10
-271.14499999999998
20
66.675000000000011
30
0
40
0.85089999999999999
210
0
220
0
230
1
0
CIRCLE
5
194
100
AcDbEntity
8
0
100
AcDbCircle
10
-291.46499999999997
20
64.135000000000005
30
0
40
0.74929999999999997
210
0
220
0
230
1
0
CIRCLE
5
195
100
AcDbEntity
8
0
100
AcDbCircle
10
-297.815
20
61.595000000000006
30
0
40
0.74929999999999997
210
0
220
0
230
1
0
CIRCLE
5
196
100
AcDbEntity
8
0
100
AcDbCircle
10
-272.41500000000002
20
64.135000000000005
30
0
40
0.74929999999999997
210
0
220
0
230
1
0
CIRCLE
5
197
100
AcDbEntity
8
0
100
AcDbCircle
10
-278.76499999999999
20
61.595000000000006
30
0
40
0.74929999999999997
210
0
220
0
230
1
0
CIRCLE
5
198
100
AcDbEntity
8
0
100
AcDbCircle
10
-255.11125000000004
20
66.675000000000011
30
0
40
0.85089999999999999
210
0
220
0
230
1
0
CIRCLE
5
199
100
AcDbEntity
8
0
100
AcDbCircle
10
-250.03125
20
66.675000000000011
30
0
40
1.9939
210
0
220
0
230
1
0
CIRCLE
5
200
100
AcDbEntity
8
0
100
AcDbCircle
10
-244.95125000000002
20
66.675000000000011
30
0
40
0.85089999999999999
210
0
220
0
230
1
0
CIRCLE
5
201
100
AcDbEntity
8
0
100
AcDbCircle
10
-228.91750000000002
20
66.675000000000011
30
0
40
0.85089999999999999
210
0
220
0
230
1
0
CIRCLE
5
202
100
AcDbEntity
8
0
100
AcDbCircle
10
-246.22125
20
64.135000000000005
30
0
40
0.74929999999999997
210
0
220
0
230
1
0
CIRCLE
5
203
100
AcDbEntity
8
0
100
AcDbCircle
10
-252.57125000000002
20
61.595000000000006
30
0
40
0.74929999999999997
210
0
220
0
230
1
0
CIRCLE
5
204
100
AcDbEntity
8
0
100
AcDbCircle
10
-276.25675000000001
20
55.88000000000001
30
0
40
1.9939
210
0
220
0
230
1
0
CIRCLE
5
205
100
AcDbEntity
8
0
100
AcDbCircle
10
-300.35500000000002
20
47.625
30
0
40
0.85089999999999999
210
0
220
0
230
1
0
CIRCLE
5
206
100
AcDbEntity
8
0
100
AcDbCircle
10
-295.27499999999998
20
47.625
30
0
40
1.9939
210
0
220
0
230
1
0
CIRCLE
5
207
100
AcDbEntity
8
0
100
AcDbCircle
10
-290.19499999999999
20
47.625
30
0
40
0.85089999999999999
210
0
220
0
230
1
0
CIRCLE
5
208
100
AcDbEntity
8
0
100
AcDbCircle
10
-280.82875000000001
20
50.037999999999997
30
0
40
1.5239999999999998
210
0
220
0
230
1
0
LWPOLYLINE
5
209
100
AcDbEntity
8
0
100
AcDbPolyline
90
2
70
1
43
0.0
10
-263.66627154531614
20
49.509120239301687
42
2.3075636200418694
10
-266.24122845468014
20
48.153879760689826
42
2.307563620031126
0
CIRCLE
5
210
100
AcDbEntity
8
0
100
AcDbCircle
10
-269.39875000000001
20
47.625
30
0
40
0.85089999999999999
210
0
220
0
230
1
0
CIRCLE
5
211
100
AcDbEntity
8
0
100
AcDbCircle
10
-252.38075000000003
20
55.88000000000001
30
0
40
1.9939
210
0
220
0
230
1
0
CIRCLE
5
212
100
AcDbEntity
8
0
100
AcDbCircle
10
-259.23874999999998
20
47.625
30
0
40
0.85089999999999999
210
0
220
0
230
1
0
CIRCLE
5
213
100
AcDbEntity
8
0
100
AcDbCircle
10
-257.49250000000006
20
47.625
30
0
40
0.85089999999999999
210
0
220
0
230
1
0
CIRCLE
5
214
100
AcDbEntity
8
0
100
AcDbCircle
10
-252.41250000000002
20
47.625
30
0
40
1.9939
210
0
220
0
230
1
0
CIRCLE
5
215
100
AcDbEntity
8
0
100
AcDbCircle
10
-247.33250000000001
20
47.625
30
0
40
0.85089999999999999
210
0
220
0
230
1
0
CIRCLE
5
216
100
AcDbEntity
8
0
100
AcDbCircle
10
-238.44250000000002
20
47.625
30
0
40
0.85089999999999999
210
0
220
0
230
1
0
CIRCLE
5
217
100
AcDbEntity
8
0
100
AcDbCircle
10
-233.36250000000004
20
47.625
30
0
40
1.9939
210
0
220
0
230
1
0
CIRCLE
5
218
100
AcDbEntity
8
0
100
AcDbCircle
10
-228.2825
20
47.625
30
0
40
0.85089999999999999
210
0
220
0
230
1
0
CIRCLE
5
219
100
AcDbEntity
8
0
100
AcDbCircle
10
-223.83750000000003
20
66.675000000000011
30
0
40
1.9939
210
0
220
0
230
1
0
CIRCLE
5
220
100
AcDbEntity
8
0
100
AcDbCircle
10
-218.75749999999999
20
66.675000000000011
30
0
40
0.85089999999999999
210
0
220
0
230
1
0
CIRCLE
5
221
100
AcDbEntity
8
0
100
AcDbCircle
10
-209.86750000000001
20
66.675000000000011
30
0
40
0.85089999999999999
210
0
220
0
230
1
0
CIRCLE
5
222
100
AcDbEntity
8
0
100
AcDbCircle
10
-204.78750000000002
20
66.675000000000011
30
0
40
1.9939
210
0
220
0
230
1
0
CIRCLE
5
223
100
AcDbEntity
8
0
100
AcDbCircle
10
-199.70750000000004
20
66.675000000000011
30
0
40
0.85089999999999999
210
0
220
0
230
1
0
CIRCLE
5
224
100
AcDbEntity
8
0
100
AcDbCircle
10
-190.8175
20
66.675000000000011
30
0
40
0.85089999999999999
210
0
220
0
230
1
0
CIRCLE
5
225
100
AcDbEntity
8
0
100
AcDbCircle
10
-220.02750000000003
20
64.135000000000005
30
0
40
0.74929999999999997
210
0
220
0
230
1
0
CIRCLE
5
226
100
AcDbEntity
8
0
100
AcDbCircle
10
-226.3775
20
61.595000000000006
30
0
40
0.74929999999999997
210
0
220
0
230
1
0
CIRCLE
5
227
100
AcDbEntity
8
0
100
AcDbCircle
10
-200.97750000000002
20
64.135000000000005
30
0
40
0.74929999999999997
210
0
220
0
230
1
0
CIRCLE
5
228
100
AcDbEntity
8
0
100
AcDbCircle
10
-207.32749999999999
20
61.595000000000006
30
0
40
0.74929999999999997
210
0
220
0
230
1
0
CIRCLE
5
229
100
AcDbEntity
8
0
100
AcDbCircle
10
-185.73750000000001
20
66.675000000000011
30
0
40
1.9939
210
0
220
0
230
1
0
CIRCLE
5
230
100
AcDbEntity
8
0
100
AcDbCircle
10
-180.65750000000003
20
66.675000000000011
30
0
40
0.85089999999999999
210
0
220
0
230
1
0
CIRCLE
5
231
100
AcDbEntity
8
0
100
AcDbCircle
10
-171.76750000000001
20
66.675000000000011
30
0
40
0.85089999999999999
210
0
220
0
230
1
0
CIRCLE
5
232
100
AcDbEntity
8
0
100
AcDbCircle
10
-166.6875
20
66.675000000000011
30
0
40
1.9939
210
0
220
0
230
1
0
CIRCLE
5
233
100
AcDbEntity
8
0
100
AcDbCircle
10
-161.60750000000002
20
66.675000000000011
30
0
40
0.85089999999999999
210
0
220
0
230
1
0
CIRCLE
5
234
100
AcDbEntity
8
0
100
AcDbCircle
10
-152.7175
20
66.675000000000011
30
0
40
0.85089999999999999
210
0
220
0
230
1
0
CIRCLE
5
235
100
AcDbEntity
8
0
100
AcDbCircle
10
-181.92750000000001
20
64.135000000000005
30
0
40
0.74929999999999997
210
0
220
0
230
1
0
CIRCLE
5
236
100
AcDbEntity
8
0
100
AcDbCircle
10
-188.27750000000003
20
61.595000000000006
30
0
40
0.74929999999999997
210
0
220
0
230
1
0
CIRCLE
5
237
100
AcDbEntity
8
0
100
AcDbCircle
10
-162.8775
20
64.135000000000005
30
0
40
0.74929999999999997
210
0
220
0
230
1
0
CIRCLE
5
238
100
AcDbEntity
8
0
100
AcDbCircle
10
-169.22750000000002
20
61.595000000000006
30
0
40
0.74929999999999997
210
0
220
0
230
1
0
CIRCLE
5
239
100
AcDbEntity
8
0
100
AcDbCircle
10
-219.39250000000001
20
47.625
30
0
40
0.85089999999999999
210
0
220
0
230
1
0
CIRCLE
5
240
100
AcDbEntity
8
0
100
AcDbCircle
10
-214.31250000000003
20
47.625
30
0
40
1.9939
210
0
220
0
230
1
0
CIRCLE
5
241
100
AcDbEntity
8
0
100
AcDbCircle
10
-209.23249999999999
20
47.625
30
0
40
0.85089999999999999
210
0
220
0
230
1
0
CIRCLE
5
242
100
AcDbEntity
8
0
100
AcDbCircle
10
-200.3425
20
47.625
30
0
40
0.85089999999999999
210
0
220
0
230
1
0
CIRCLE
5
243
100
AcDbEntity
8
0
100
AcDbCircle
10
-195.26250000000002
20
47.625
30
0
40
1.9939
210
0
220
0
230
1
0
CIRCLE
5
244
100
AcDbEntity
8
0
100
AcDbCircle
10
-190.1825
20
47.625
30
0
40
0.85089999999999999
210
0
220
0
230
1
0
CIRCLE
5
245
100
AcDbEntity
8
0
100
AcDbCircle
10
-181.29249999999999
20
47.625
30
0
40
0.85089999999999999
210
0
220
0
230
1
0
CIRCLE
5
246
100
AcDbEntity
8
0
100
AcDbCircle
10
-176.21250000000001
20
47.625
30
0
40
1.9939
210
0
220
0
230
1
0
CIRCLE
5
247
100
AcDbEntity
8
0
100
AcDbCircle
10
-171.13249999999999
20
47.625
30
0
40
0.85089999999999999
210
0
220
0
230
1
0
CIRCLE
5
248
100
AcDbEntity
8
0
100
AcDbCircle
10
-162.24250000000001
20
47.625
30
0
40
0.85089999999999999
210
0
220
0
230
1
0
CIRCLE
5
249
100
AcDbEntity
8
0
100
AcDbCircle
10
-157.16249999999999
20
47.625
30
0
40
1.9939
210
0
220
0
230
1
0
CIRCLE
5
250
100
AcDbEntity
8
0
100
AcDbCircle
10
-147.95500000000001
20
85.724999999999994
30
0
40
0.85089999999999999
210
0
220
0
230
1
0
CIRCLE
5
251
100
AcDbEntity
8
0
100
AcDbCircle
10
-142.875
20
85.724999999999994
30
0
40
1.9939
210
0
220
0
230
1
0
CIRCLE
5
252
100
AcDbEntity
8
0
100
AcDbCircle
10
-137.79499999999999
20
85.724999999999994
30
0
40
0.85089999999999999
210
0
220
0
230
1
0
CIRCLE
5
253
100
AcDbEntity
8
0
100
AcDbCircle
10
-136.04875000000001
20
85.724999999999994
30
0
40
0.85089999999999999
210
0
220
0
230
1
0
CIRCLE
5
254
100
AcDbEntity
8
0
100
AcDbCircle
10
-139.065
20
83.185000000000002
30
0
40
0.74929999999999997
210
0
220
0
230
1
0
LWPOLYLINE
5
255
100
AcDbEntity
8
0
100
AcDbPolyline
90
2
70
1
43
0.0
10
-129.14908423076614
20
86.54014029361727
42
4.6784164628759548
10
-129.14908423076986
20
84.909859706374419
42
1.3433076972557025
0
LWPOLYLINE
5
256
100
AcDbEntity
8
0
100
AcDbPolyline
90
2
70
1
43
0.0
10
-125.64466576922891
20
86.540140293623665
42
1.3433076972572096
10
-125.64466576923166
20
84.909859706375514
42
4.678416462857979
0
CIRCLE
5
257
100
AcDbEntity
8
0
100
AcDbCircle
10
-118.745
20
85.724999999999994
30
0
40
0.85089999999999999
210
0
220
0
230
1
0
CIRCLE
5
258
100
AcDbEntity
8
0
100
AcDbCircle
10
-127.15875
20
83.185000000000002
30
0
40
0.74929999999999997
210
0
220
0
230
1
0
CIRCLE
5
259
100
AcDbEntity
8
0
100
AcDbCircle
10
-120.015
20
83.185000000000002
30
0
40
0.74929999999999997
210
0
220
0
230
1
0
CIRCLE
5
260
100
AcDbEntity
8
0
100
AcDbCircle
10
-85.693250000000006
20
92.709999999999994
30
0
40
1.5239999999999998
210
0
220
0
230
1
0
CIRCLE
5
261
100
AcDbEntity
8
0
100
AcDbCircle
10
-80.930750000000003
20
92.709999999999994
30
0
40
1.5239999999999998
210
0
220
0
230
1
0
CIRCLE
5
262
100
AcDbEntity
8
0
100
AcDbCircle
10
-145.41499999999999
20
80.64500000000001
30
0
40
0.74929999999999997
210
0
220
0
230
1
0
CIRCLE
5
263
100
AcDbEntity
8
0
100
AcDbCircle
10
-133.50874999999999
20
80.64500000000001
30
0
40
0.74929999999999997
210
0
220
0
230
1
0
CIRCLE
5
264
100
AcDbEntity
8
0
100
AcDbCircle
10
-126.36499999999999
20
80.64500000000001
30
0
40
0.74929999999999997
210
0
220
0
230
1
0
CIRCLE
5
265
100
AcDbEntity
8
0
100
AcDbCircle
10
-85.693250000000006
20
77.469999999999999
30
0
40
1.9939
210
0
220
0
230
1
0
CIRCLE
5
266
100
AcDbEntity
8
0
100
AcDbCircle
10
-80.930750000000003
20
77.469999999999999
30
0
40
1.9939
210
0
220
0
230
1
0
CIRCLE
5
267
100
AcDbEntity
8
0
100
AcDbCircle
10
-66.643249999999995
20
92.709999999999994
30
0
40
1.5239999999999998
210
0
220
0
230
1
0
CIRCLE
5
268
100
AcDbEntity
8
0
100
AcDbCircle
10
-66.992552000000003
20
85.725072000000011
30
0
40
0.85089999999999999
210
0
220
0
230
1
0
LWPOLYLINE
5
269
100
AcDbEntity
8
0
100
AcDbPolyline
90
6
70
1
43
0.0
10
-63.86435171800472
20
86.132644166341805
42
3.9198089892920951
10
-63.864329967562497
20
85.317395688021378
42
0.54785892560783644
10
-60.721949357876063
20
84.125665060359921
42
0.54789592524666253
10
-57.579450281991086
20
85.317427833650498
42
3.9198089892874548
10
-57.579472032438552
20
86.132676311970314
42
0.54785892560912808
10
-60.721852642123942
20
87.324406939640085
42
0.54789592524774988
0
CIRCLE
5
270
100
AcDbEntity
8
0
100
AcDbCircle
10
-54.451250000000009
20
85.724999999999994
30
0
40
0.85089999999999999
210
0
220
0
230
1
0
CIRCLE
5
271
100
AcDbEntity
8
0
100
AcDbCircle
10
-47.942536000000004
20
85.725072000000011
30
0
40
0.85089999999999999
210
0
220
0
230
1
0
CIRCLE
5
272
100
AcDbEntity
8
0
100
AcDbCircle
10
-58.102552000000003
20
83.185072000000005
30
0
40
0.74929999999999997
210
0
220
0
230
1
0
CIRCLE
5
273
100
AcDbEntity
8
0
100
AcDbCircle
10
-55.721249999999998
20
83.185000000000002
30
0
40
0.74929999999999997
210
0
220
0
230
1
0
CIRCLE
5
274
100
AcDbEntity
8
0
100
AcDbCircle
10
-30.638750000000002
20
85.724999999999994
30
0
40
0.85089999999999999
210
0
220
0
230
1
0
LWPOLYLINE
5
275
100
AcDbEntity
8
0
100
AcDbPolyline
90
4
70
1
43
0.0
10
-26.253146000000001
20
86.975072000000011
42
0.99999999999999989
10
-26.253146000000001
20
84.475072000000011
10
-23.753146000000001
20
84.475072000000011
42
0.99999999999999989
10
-23.753146000000001
20
86.975072000000011
0
LWPOLYLINE
5
276
100
AcDbEntity
8
0
100
AcDbPolyline
90
10
70
1
43
0.0
10
-41.042837535945978
20
86.54013930392
42
4.6784762448065118
10
-41.042894411433934
20
84.909877729190413
42
0.35438418497380703
10
-40.051815503710991
20
85.317422193620004
42
0.23286209325992102
10
-38.966871979269385
20
83.929459107325386
42
8.14939805025932
10
-38.627615665527038
20
83.802237455409895
42
0.23089968211100598
10
-36.90943935850639
20
84.125657615912189
42
0.54789830707551246
10
-33.76694474741668
20
85.31745433877019
42
3.9200993750245257
10
-33.766966496289015
20
86.132649806380002
42
0.54786130732617722
10
-36.909342641488848
20
87.324414384084264
42
0.54789830707648002
10
-40.051837252583333
20
86.13261766122983
42
0.35434953599325958
0
CIRCLE
5
277
100
AcDbEntity
8
0
100
AcDbCircle
10
-34.290031999999997
20
83.185072000000005
30
0
40
0.74929999999999997
210
0
220
0
230
1
0
CIRCLE
5
278
100
AcDbEntity
8
0
100
AcDbCircle
10
-31.908750000000001
20
83.185000000000002
30
0
40
0.74929999999999997
210
0
220
0
230
1
0
CIRCLE
5
279
100
AcDbEntity
8
0
100
AcDbCircle
10
-19.367512000000001
20
85.725072000000011
30
0
40
0.85089999999999999
210
0
220
0
230
1
0
LWPOLYLINE
5
280
100
AcDbEntity
8
0
100
AcDbPolyline
90
6
70
1
43
0.0
10
-16.239301039927589
20
85.317448701330093
42
0.54786368939805974
10
-13.096929359140487
20
84.125650171562
42
0.5479006892582905
10
-9.9544392127735151
20
85.317480846000819
42
3.9203898187440105
10
-9.9544609600704135
20
86.132623298660334
42
0.54786368939979357
10
-13.096832640857814
20
87.324421828434282
42
0.5479006892599616
10
-16.239322787222285
20
86.132591153991484
42
3.9203898187503277
0
CIRCLE
5
281
100
AcDbEntity
8
0
100
AcDbCircle
10
-6.8262499999999999
20
85.724999999999994
30
0
40
0.85089999999999999
210
0
220
0
230
1
0
CIRCLE
5
282
100
AcDbEntity
8
0
100
AcDbCircle
10
-10.477512000000003
20
83.185072000000005
30
0
40
0.74929999999999997
210
0
220
0
230
1
0
CIRCLE
5
283
100
AcDbEntity
8
0
100
AcDbCircle
10
-8.0962500000000013
20
83.185000000000002
30
0
40
0.74929999999999997
210
0
220
0
230
1
0
CIRCLE
5
284
100
AcDbEntity
8
0
100
AcDbCircle
10
-64.452551999999997
20
80.645071999999999
30
0
40
0.74929999999999997
210
0
220
0
230
1
0
CIRCLE
5
285
100
AcDbEntity
8
0
100
AcDbCircle
10
-62.071250000000006
20
80.64500000000001
30
0
40
0.74929999999999997
210
0
220
0
230
1
0
CIRCLE
5
286
100
AcDbEntity
8
0
100
AcDbCircle
10
-66.643249999999995
20
77.469999999999999
30
0
40
1.9939
210
0
220
0
230
1
0
CIRCLE
5
287
100
AcDbEntity
8
0
100
AcDbCircle
10
-45.402535999999998
20
80.645071999999999
30
0
40
0.74929999999999997
210
0
220
0
230
1
0
CIRCLE
5
288
100
AcDbEntity
8
0
100
AcDbCircle
10
-40.640032000000005
20
80.645071999999999
30
0
40
0.74929999999999997
210
0
220
0
230
1
0
CIRCLE
5
289
100
AcDbEntity
8
0
100
AcDbCircle
10
-38.258749999999999
20
80.64500000000001
30
0
40
0.74929999999999997
210
0
220
0
230
1
0
CIRCLE
5
290
100
AcDbEntity
8
0
100
AcDbCircle
10
-16.827511999999999
20
80.645071999999999
30
0
40
0.74929999999999997
210
0
220
0
230
1
0
CIRCLE
5
291
100
AcDbEntity
8
0
100
AcDbCircle
10
-14.446250000000001
20
80.64500000000001
30
0
40
0.74929999999999997
210
0
220
0
230
1
0
CIRCLE
5
292
100
AcDbEntity
8
0
100
AcDbCircle
10
-33.369250000000001
20
74.930000000000007
30
0
40
1.9939
210
0
220
0
230
1
0
CIRCLE
5
293
100
AcDbEntity
8
0
100
AcDbCircle
10
-9.4932499999999997
20
74.930000000000007
30
0
40
1.9939
210
0
220
0
230
1
0
CIRCLE
5
294
100
AcDbEntity
8
0
100
AcDbCircle
10
-147.63749999999999
20
66.675000000000011
30
0
40
1.9939
210
0
220
0
230
1
0
CIRCLE
5
295
100
AcDbEntity
8
0
100
AcDbCircle
10
-142.5575
20
66.675000000000011
30
0
40
0.85089999999999999
210
0
220
0
230
1
0
CIRCLE
5
296
100
AcDbEntity
8
0
100
AcDbCircle
10
-133.66749999999999
20
66.675000000000011
30
0
40
0.85089999999999999
210
0
220
0
230
1
0
CIRCLE
5
297
100
AcDbEntity
8
0
100
AcDbCircle
10
-128.58750000000001
20
66.675000000000011
30
0
40
1.9939
210
0
220
0
230
1
0
CIRCLE
5
298
100
AcDbEntity
8
0
100
AcDbCircle
10
-123.50749999999999
20
66.675000000000011
30
0
40
0.85089999999999999
210
0
220
0
230
1
0
CIRCLE
5
299
100
AcDbEntity
8
0
100
AcDbCircle
10
-143.82749999999999
20
64.135000000000005
30
0
40
0.74929999999999997
210
0
220
0
230
1
0
CIRCLE
5
300
100
AcDbEntity
8
0
100
AcDbCircle
10
-150.17750000000001
20
61.595000000000006
30
0
40
0.74929999999999997
210
0
220
0
230
1
0
CIRCLE
5
301
100
AcDbEntity
8
0
100
AcDbCircle
10
-124.7775
20
64.135000000000005
30
0
40
0.74929999999999997
210
0
220
0
230
1
0
CIRCLE
5
302
100
AcDbEntity
8
0
100
AcDbCircle
10
-131.1275
20
61.595000000000006
30
0
40
0.74929999999999997
210
0
220
0
230
1
0
CIRCLE
5
303
100
AcDbEntity
8
0
100
AcDbCircle
10
-114.61750000000002
20
66.675000000000011
30
0
40
0.85089999999999999
210
0
220
0
230
1
0
CIRCLE
5
304
100
AcDbEntity
8
0
100
AcDbCircle
10
-109.53749999999999
20
66.675000000000011
30
0
40
1.9939
210
0
220
0
230
1
0
CIRCLE
5
305
100
AcDbEntity
8
0
100
AcDbCircle
10
-104.45750000000001
20
66.675000000000011
30
0
40
0.85089999999999999
210
0
220
0
230
1
0
CIRCLE
5
306
100
AcDbEntity
8
0
100
AcDbCircle
10
-95.567499999999995
20
66.675000000000011
30
0
40
0.85089999999999999
210
0
220
0
230
1
0
CIRCLE
5
307
100
AcDbEntity
8
0
100
AcDbCircle
10
-90.487499999999997
20
66.675000000000011
30
0
40
1.9939
210
0
220
0
230
1
0
CIRCLE
5
308
100
AcDbEntity
8
0
100
AcDbCircle
10
-85.407500000000013
20
66.675000000000011
30
0
40
0.85089999999999999
210
0
220
0
230
1
0
CIRCLE
5
309
100
AcDbEntity
8
0
100
AcDbCircle
10
-105.72750000000001
20
64.135000000000005
30
0
40
0.74929999999999997
210
0
220
0
230
1
0
CIRCLE
5
310
100
AcDbEntity
8
0
100
AcDbCircle
10
-112.07750000000001
20
61.595000000000006
30
0
40
0.74929999999999997
210
0
220
0
230
1
0
CIRCLE
5
311
100
AcDbEntity
8
0
100
AcDbCircle
10
-86.677499999999995
20
64.135000000000005
30
0
40
0.74929999999999997
210
0
220
0
230
1
0
CIRCLE
5
312
100
AcDbEntity
8
0
100
AcDbCircle
10
-93.027500000000018
20
61.595000000000006
30
0
40
0.74929999999999997
210
0
220
0
230
1
0
CIRCLE
5
313
100
AcDbEntity
8
0
100
AcDbCircle
10
-152.08250000000001
20
47.625
30
0
40
0.85089999999999999
210
0
220
0
230
1
0
CIRCLE
5
314
100
AcDbEntity
8
0
100
AcDbCircle
10
-143.1925
20
47.625
30
0
40
0.85089999999999999
210
0
220
0
230
1
0
CIRCLE
5
315
100
AcDbEntity
8
0
100
AcDbCircle
10
-138.11250000000001
20
47.625
30
0
40
1.9939
210
0
220
0
230
1
0
CIRCLE
5
316
100
AcDbEntity
8
0
100
AcDbCircle
10
-133.0325
20
47.625
30
0
40
0.85089999999999999
210
0
220
0
230
1
0
LWPOLYLINE
5
317
100
AcDbEntity
8
0
100
AcDbPolyline
90
4
70
1
43
0.0
10
-129.83760799999999
20
48.875039999999998
42
0.99999999999999989
10
-129.83760799999999
20
46.375039999999998
10
-127.337608
20
46.375039999999998
42
0.99999999999999989
10
-127.337608
20
48.875039999999998
0
CIRCLE
5
318
100
AcDbEntity
8
0
100
AcDbCircle
10
-124.14250000000001
20
47.625
30
0
40
0.85089999999999999
210
0
220
0
230
1
0
CIRCLE
5
319
100
AcDbEntity
8
0
100
AcDbCircle
10
-119.0625
20
47.625
30
0
40
1.9939
210
0
220
0
230
1
0
CIRCLE
5
320
100
AcDbEntity
8
0
100
AcDbCircle
10
-113.98250000000002
20
47.625
30
0
40
0.85089999999999999
210
0
220
0
230
1
0
CIRCLE
5
321
100
AcDbEntity
8
0
100
AcDbCircle
10
-105.09250000000002
20
47.625
30
0
40
0.85089999999999999
210
0
220
0
230
1
0
CIRCLE
5
322
100
AcDbEntity
8
0
100
AcDbCircle
10
-100.0125
20
47.625
30
0
40
1.9939
210
0
220
0
230
1
0
CIRCLE
5
323
100
AcDbEntity
8
0
100
AcDbCircle
10
-94.932500000000019
20
47.625
30
0
40
0.85089999999999999
210
0
220
0
230
1
0
CIRCLE
5
324
100
AcDbEntity
8
0
100
AcDbCircle
10
-86.042500000000004
20
47.625
30
0
40
0.85089999999999999
210
0
220
0
230
1
0
CIRCLE
5
325
100
AcDbEntity
8
0
100
AcDbCircle
10
-80.962500000000006
20
47.625
30
0
40
1.9939
210
0
220
0
230
1
0
CIRCLE
5
326
100
AcDbEntity
8
0
100
AcDbCircle
10
-76.517499999999998
20
66.675000000000011
30
0
40
0.85089999999999999
210
0
220
0
230
1
0
CIRCLE
5
327
100
AcDbEntity
8
0
100
AcDbCircle
10
-71.4375
20
66.675000000000011
30
0
40
1.9939
210
0
220
0
230
1
0
CIRCLE
5
328
100
AcDbEntity
8
0
100
AcDbCircle
10
-66.357500000000002
20
66.675000000000011
30
0
40
0.85089999999999999
210
0
220
0
230
1
0
CIRCLE
5
329
100
AcDbEntity
8
0
100
AcDbCircle
10
-57.467500000000001
20
66.675000000000011
30
0
40
0.85089999999999999
210
0
220
0
230
1
0
CIRCLE
5
330
100
AcDbEntity
8
0
100
AcDbCircle
10
-52.387500000000003
20
66.675000000000011
30
0
40
1.9939
210
0
220
0
230
1
0
CIRCLE
5
331
100
AcDbEntity
8
0
100
AcDbCircle
10
-47.307499999999997
20
66.675000000000011
30
0
40
0.85089999999999999
210
0
220
0
230
1
0
CIRCLE
5
332
100
AcDbEntity
8
0
100
AcDbCircle
10
-67.627499999999998
20
64.135000000000005
30
0
40
0.74929999999999997
210
0
220
0
230
1
0
CIRCLE
5
333
100
AcDbEntity
8
0
100
AcDbCircle
10
-73.977500000000006
20
61.595000000000006
30
0
40
0.74929999999999997
210
0
220
0
230
1
0
CIRCLE
5
334
100
AcDbEntity
8
0
100
AcDbCircle
10
-48.577500000000001
20
64.135000000000005
30
0
40
0.74929999999999997
210
0
220
0
230
1
0
CIRCLE
5
335
100
AcDbEntity
8
0
100
AcDbCircle
10
-54.927500000000009
20
61.595000000000006
30
0
40
0.74929999999999997
210
0
220
0
230
1
0
CIRCLE
5
336
100
AcDbEntity
8
0
100
AcDbCircle
10
-38.417499999999997
20
66.675000000000011
30
0
40
0.85089999999999999
210
0
220
0
230
1
0
CIRCLE
5
337
100
AcDbEntity
8
0
100
AcDbCircle
10
-33.337500000000006
20
66.675000000000011
30
0
40
1.9939
210
0
220
0
230
1
0
CIRCLE
5
338
100
AcDbEntity
8
0
100
AcDbCircle
10
-28.2575
20
66.675000000000011
30
0
40
0.85089999999999999
210
0
220
0
230
1
0
CIRCLE
5
339
100
AcDbEntity
8
0
100
AcDbCircle
10
-26.511250000000004
20
66.675000000000011
30
0
40
0.85089999999999999
210
0
220
0
230
1
0
CIRCLE
5
340
100
AcDbEntity
8
0
100
AcDbCircle
10
-21.431249999999999
20
66.675000000000011
30
0
40
1.9939
210
0
220
0
230
1
0
LWPOLYLINE
5
341
100
AcDbEntity
8
0
100
AcDbPolyline
90
2
70
1
43
0.0
10
-16.668749999999886
20
67.464445729610304
42
1.4800257398021393
10
-16.668749999999882
20
65.885554270389704
42
1.4800257398017334
0
CIRCLE
5
342
100
AcDbEntity
8
0
100
AcDbCircle
10
-11.90625
20
66.675000000000011
30
0
40
1.9939
210
0
220
0
230
1
0
CIRCLE
5
343
100
AcDbEntity
8
0
100
AcDbCircle
10
-6.8262499999999999
20
66.675000000000011
30
0
40
0.85089999999999999
210
0
220
0
230
1
0
CIRCLE
5
344
100
AcDbEntity
8
0
100
AcDbCircle
10
-29.5275
20
64.135000000000005
30
0
40
0.74929999999999997
210
0
220
0
230
1
0
CIRCLE
5
345
100
AcDbEntity
8
0
100
AcDbCircle
10
-35.877499999999998
20
61.595000000000006
30
0
40
0.74929999999999997
210
0
220
0
230
1
0
CIRCLE
5
346
100
AcDbEntity
8
0
100
AcDbCircle
10
-33.369250000000001
20
59.690000000000005
30
0
40
1.5239999999999998
210
0
220
0
230
1
0
CIRCLE
5
347
100
AcDbEntity
8
0
100
AcDbCircle
10
-23.971250000000005
20
61.595000000000006
30
0
40
0.74929999999999997
210
0
220
0
230
1
0
CIRCLE
5
348
100
AcDbEntity
8
0
100
AcDbCircle
10
-17.621250000000003
20
64.135000000000005
30
0
40
0.74929999999999997
210
0
220
0
230
1
0
CIRCLE
5
349
100
AcDbEntity
8
0
100
AcDbCircle
10
-8.0962500000000013
20
64.135000000000005
30
0
40
0.74929999999999997
210
0
220
0
230
1
0
CIRCLE
5
350
100
AcDbEntity
8
0
100
AcDbCircle
10
-14.446250000000001
20
61.595000000000006
30
0
40
0.74929999999999997
210
0
220
0
230
1
0
CIRCLE
5
351
100
AcDbEntity
8
0
100
AcDbCircle
10
-9.4932499999999997
20
59.690000000000005
30
0
40
1.5239999999999998
210
0
220
0
230
1
0
CIRCLE
5
352
100
AcDbEntity
8
0
100
AcDbCircle
10
-75.882499999999993
20
47.625
30
0
40
0.85089999999999999
210
0
220
0
230
1
0
CIRCLE
5
353
100
AcDbEntity
8
0
100
AcDbCircle
10
-66.992500000000007
20
47.625
30
0
40
0.85089999999999999
210
0
220
0
230
1
0
CIRCLE
5
354
100
AcDbEntity
8
0
100
AcDbCircle
10
-61.912500000000001
20
47.625
30
0
40
1.9939
210
0
220
0
230
1
0
CIRCLE
5
355
100
AcDbEntity
8
0
100
AcDbCircle
10
-56.83250000000001
20
47.625
30
0
40
0.85089999999999999
210
0
220
0
230
1
0
CIRCLE
5
356
100
AcDbEntity
8
0
100
AcDbCircle
10
-47.942536000000004
20
47.625039999999998
30
0
40
0.85089999999999999
210
0
220
0
230
1
0
CIRCLE
5
357
100
AcDbEntity
8
0
100
AcDbCircle
10
-42.862536000000006
20
47.625039999999998
30
0
40
1.9939
210
0
220
0
230
1
0
CIRCLE
5
358
100
AcDbEntity
8
0
100
AcDbCircle
10
-3.5718779999999999
20
55.086252000000009
30
0
40
0.37500000000000006
210
0
220
0
230
1
0
CIRCLE
5
359
100
AcDbEntity
8
0
100
AcDbCircle
10
-37.782536
20
47.625039999999998
30
0
40
0.85089999999999999
210
0
220
0
230
1
0
CIRCLE
5
360
100
AcDbEntity
8
0
100
AcDbCircle
10
-17.938763999999999
20
52.705039999999997
30
0
40
0.625
210
0
220
0
230
1
0
CIRCLE
5
361
100
AcDbEntity
8
0
100
AcDbCircle
10
-15.398764
20
52.705039999999997
30
0
40
0.625
210
0
220
0
230
1
0
CIRCLE
5
362
100
AcDbEntity
8
0
100
AcDbCircle
10
-13.17625
20
52.704999999999998
30
0
40
0.625
210
0
220
0
230
1
0
CIRCLE
5
363
100
AcDbEntity
8
0
100
AcDbCircle
10
-10.63625
20
52.704999999999998
30
0
40
0.625
210
0
220
0
230
1
0
CIRCLE
5
364
100
AcDbEntity
8
0
100
AcDbCircle
10
-3.5718779999999999
20
52.704999999999998
30
0
40
0.37500000000000006
210
0
220
0
230
1
0
CIRCLE
5
365
100
AcDbEntity
8
0
100
AcDbCircle
10
-3.5718779999999999
20
50.323748000000002
30
0
40
0.37500000000000006
210
0
220
0
230
1
0
CIRCLE
5
366
100
AcDbEntity
8
0
100
AcDbCircle
10
-21.748764000000001
20
47.625039999999998
30
0
40
0.85089999999999999
210
0
220
0
230
1
0
CIRCLE
5
367
100
AcDbEntity
8
0
100
AcDbCircle
10
-16.668763999999999
20
47.625039999999998
30
0
40
1.9939
210
0
220
0
230
1
0
CIRCLE
5
368
100
AcDbEntity
8
0
100
AcDbCircle
10
-6.8262499999999999
20
47.625
30
0
40
0.85089999999999999
210
0
220
0
230
1
0
CIRCLE
5
369
100
AcDbEntity
8
0
100
AcDbCircle
10
-291.46499999999997
20
45.085000000000008
30
0
40
0.74929999999999997
210
0
220
0
230
1
0
CIRCLE
5
370
100
AcDbEntity
8
0
100
AcDbCircle
10
-297.815
20
42.545000000000002
30
0
40
0.74929999999999997
210
0
220
0
230
1
0
CIRCLE
5
371
100
AcDbEntity
8
0
100
AcDbCircle
10
-273.84375
20
43.180000000000007
30
0
40
0.85089999999999999
210
0
220
0
230
1
0
CIRCLE
5
372
100
AcDbEntity
8
0
100
AcDbCircle
10
-271.30375000000004
20
41.909999999999997
30
0
40
0.74929999999999997
210
0
220
0
230
1
0
CIRCLE
5
373
100
AcDbEntity
8
0
100
AcDbCircle
10
-266.85874999999999
20
42.545000000000002
30
0
40
0.74929999999999997
210
0
220
0
230
1
0
LWPOLYLINE
5
374
100
AcDbEntity
8
0
100
AcDbPolyline
90
2
70
1
43
0.0
10
-275.32715718730805
20
39.432343922057242
42
25.228675835130069
10
-275.09832095986587
20
39.649738338127221
42
19.261443271813221
0
CIRCLE
5
375
100
AcDbEntity
8
0
100
AcDbCircle
10
-268.76375000000002
20
35.560000000000002
30
0
40
0.74929999999999997
210
0
220
0
230
1
0
CIRCLE
5
376
100
AcDbEntity
8
0
100
AcDbCircle
10
-260.50875000000008
20
45.085000000000008
30
0
40
0.74929999999999997
210
0
220
0
230
1
0
CIRCLE
5
377
100
AcDbEntity
8
0
100
AcDbCircle
10
-248.60250000000002
20
45.085000000000008
30
0
40
0.74929999999999997
210
0
220
0
230
1
0
CIRCLE
5
378
100
AcDbEntity
8
0
100
AcDbCircle
10
-254.95249999999999
20
42.545000000000002
30
0
40
0.74929999999999997
210
0
220
0
230
1
0
CIRCLE
5
379
100
AcDbEntity
8
0
100
AcDbCircle
10
-229.55250000000004
20
45.085000000000008
30
0
40
0.74929999999999997
210
0
220
0
230
1
0
CIRCLE
5
380
100
AcDbEntity
8
0
100
AcDbCircle
10
-235.9025
20
42.545000000000002
30
0
40
0.74929999999999997
210
0
220
0
230
1
0
CIRCLE
5
381
100
AcDbEntity
8
0
100
AcDbCircle
10
-252.38075000000003
20
40.640000000000001
30
0
40
1.5239999999999998
210
0
220
0
230
1
0
CIRCLE
5
382
100
AcDbEntity
8
0
100
AcDbCircle
10
-273.84375
20
33.020000000000003
30
0
40
0.85089999999999999
210
0
220
0
230
1
0
CIRCLE
5
383
100
AcDbEntity
8
0
100
AcDbCircle
10
-300.35500000000002
20
28.574999999999999
30
0
40
0.85089999999999999
210
0
220
0
230
1
0
CIRCLE
5
384
100
AcDbEntity
8
0
100
AcDbCircle
10
-295.27499999999998
20
28.574999999999999
30
0
40
1.9939
210
0
220
0
230
1
0
CIRCLE
5
385
100
AcDbEntity
8
0
100
AcDbCircle
10
-290.19499999999999
20
28.574999999999999
30
0
40
0.85089999999999999
210
0
220
0
230
1
0
CIRCLE
5
386
100
AcDbEntity
8
0
100
AcDbCircle
10
-291.46499999999997
20
26.035000000000004
30
0
40
0.74929999999999997
210
0
220
0
230
1
0
CIRCLE
5
387
100
AcDbEntity
8
0
100
AcDbCircle
10
-276.54250000000002
20
28.574999999999999
30
0
40
0.85089999999999999
210
0
220
0
230
1
0
CIRCLE
5
388
100
AcDbEntity
8
0
100
AcDbCircle
10
-271.46249999999998
20
28.574999999999999
30
0
40
1.9939
210
0
220
0
230
1
0
LWPOLYLINE
5
389
100
AcDbEntity
8
0
100
AcDbPolyline
90
4
70
1
43
0.0
10
-265.64237779844279
20
28.155178684721555
42
2.5896627364680276
10
-266.72885970350887
20
27.797783321212648
42
0.16503016690139596
10
-267.48889583139851
20
26.766221010376633
42
1.3302582877087423
10
-267.40047338575459
20
25.329356268557881
42
1.8583345150635981
0
CIRCLE
5
390
100
AcDbEntity
8
0
100
AcDbCircle
10
-280.82875000000001
20
26.161999999999999
30
0
40
1.5239999999999998
210
0
220
0
230
1
0
LWPOLYLINE
5
391
100
AcDbEntity
8
0
100
AcDbPolyline
90
4
70
1
43
0.0
10
-261.40178100000003
20
29.825023999999999
42
0.99999999999999989
10
-261.40178100000003
20
27.325023999999999
10
-258.90178100000003
20
27.325023999999999
42
0.99999999999999989
10
-258.90178100000003
20
29.825023999999999
0
CIRCLE
5
392
100
AcDbEntity
8
0
100
AcDbCircle
10
-252.72999999999999
20
28.574999999999999
30
0
40
0.85089999999999999
210
0
220
0
230
1
0
CIRCLE
5
393
100
AcDbEntity
8
0
100
AcDbCircle
10
-247.65000000000001
20
28.574999999999999
30
0
40
1.9939
210
0
220
0
230
1
0
CIRCLE
5
394
100
AcDbEntity
8
0
100
AcDbCircle
10
-242.57000000000002
20
28.574999999999999
30
0
40
0.85089999999999999
210
0
220
0
230
1
0
CIRCLE
5
395
100
AcDbEntity
8
0
100
AcDbCircle
10
-233.68000000000001
20
28.574999999999999
30
0
40
0.85089999999999999
210
0
220
0
230
1
0
CIRCLE
5
396
100
AcDbEntity
8
0
100
AcDbCircle
10
-228.59999999999999
20
28.574999999999999
30
0
40
1.9939
210
0
220
0
230
1
0
CIRCLE
5
397
100
AcDbEntity
8
0
100
AcDbCircle
10
-243.84
20
26.035000000000004
30
0
40
0.74929999999999997
210
0
220
0
230
1
0
CIRCLE
5
398
100
AcDbEntity
8
0
100
AcDbCircle
10
-210.50250000000003
20
45.085000000000008
30
0
40
0.74929999999999997
210
0
220
0
230
1
0
CIRCLE
5
399
100
AcDbEntity
8
0
100
AcDbCircle
10
-216.85249999999999
20
42.545000000000002
30
0
40
0.74929999999999997
210
0
220
0
230
1
0
CIRCLE
5
400
100
AcDbEntity
8
0
100
AcDbCircle
10
-191.45250000000001
20
45.085000000000008
30
0
40
0.74929999999999997
210
0
220
0
230
1
0
CIRCLE
5
401
100
AcDbEntity
8
0
100
AcDbCircle
10
-197.80250000000001
20
42.545000000000002
30
0
40
0.74929999999999997
210
0
220
0
230
1
0
CIRCLE
5
402
100
AcDbEntity
8
0
100
AcDbCircle
10
-172.4025
20
45.085000000000008
30
0
40
0.74929999999999997
210
0
220
0
230
1
0
CIRCLE
5
403
100
AcDbEntity
8
0
100
AcDbCircle
10
-178.7525
20
42.545000000000002
30
0
40
0.74929999999999997
210
0
220
0
230
1
0
CIRCLE
5
404
100
AcDbEntity
8
0
100
AcDbCircle
10
-153.35249999999999
20
45.085000000000008
30
0
40
0.74929999999999997
210
0
220
0
230
1
0
CIRCLE
5
405
100
AcDbEntity
8
0
100
AcDbCircle
10
-159.70249999999999
20
42.545000000000002
30
0
40
0.74929999999999997
210
0
220
0
230
1
0
CIRCLE
5
406
100
AcDbEntity
8
0
100
AcDbCircle
10
-223.52000000000004
20
28.574999999999999
30
0
40
0.85089999999999999
210
0
220
0
230
1
0
CIRCLE
5
407
100
AcDbEntity
8
0
100
AcDbCircle
10
-214.63
20
28.574999999999999
30
0
40
0.85089999999999999
210
0
220
0
230
1
0
CIRCLE
5
408
100
AcDbEntity
8
0
100
AcDbCircle
10
-209.55000000000001
20
28.574999999999999
30
0
40
1.9939
210
0
220
0
230
1
0
CIRCLE
5
409
100
AcDbEntity
8
0
100
AcDbCircle
10
-224.78999999999999
20
26.035000000000004
30
0
40
0.74929999999999997
210
0
220
0
230
1
0
CIRCLE
5
410
100
AcDbEntity
8
0
100
AcDbCircle
10
-204.47000000000003
20
28.574999999999999
30
0
40
0.85089999999999999
210
0
220
0
230
1
0
CIRCLE
5
411
100
AcDbEntity
8
0
100
AcDbCircle
10
-195.58000000000004
20
28.574999999999999
30
0
40
0.85089999999999999
210
0
220
0
230
1
0
CIRCLE
5
412
100
AcDbEntity
8
0
100
AcDbCircle
10
-190.5
20
28.574999999999999
30
0
40
1.9939
210
0
220
0
230
1
0
CIRCLE
5
413
100
AcDbEntity
8
0
100
AcDbCircle
10
-205.74000000000001
20
26.035000000000004
30
0
40
0.74929999999999997
210
0
220
0
230
1
0
CIRCLE
5
414
100
AcDbEntity
8
0
100
AcDbCircle
10
-185.41999999999999
20
28.574999999999999
30
0
40
0.85089999999999999
210
0
220
0
230
1
0
CIRCLE
5
415
100
AcDbEntity
8
0
100
AcDbCircle
10
-176.53000000000003
20
28.574999999999999
30
0
40
0.85089999999999999
210
0
220
0
230
1
0
CIRCLE
5
416
100
AcDbEntity
8
0
100
AcDbCircle
10
-171.44999999999999
20
28.574999999999999
30
0
40
1.9939
210
0
220
0
230
1
0
CIRCLE
5
417
100
AcDbEntity
8
0
100
AcDbCircle
10
-186.69
20
26.035000000000004
30
0
40
0.74929999999999997
210
0
220
0
230
1
0
CIRCLE
5
418
100
AcDbEntity
8
0
100
AcDbCircle
10
-166.37
20
28.574999999999999
30
0
40
0.85089999999999999
210
0
220
0
230
1
0
CIRCLE
5
419
100
AcDbEntity
8
0
100
AcDbCircle
10
-157.47999999999999
20
28.574999999999999
30
0
40
0.85089999999999999
210
0
220
0
230
1
0
CIRCLE
5
420
100
AcDbEntity
8
0
100
AcDbCircle
10
-167.63999999999999
20
26.035000000000004
30
0
40
0.74929999999999997
210
0
220
0
230
1
0
CIRCLE
5
421
100
AcDbEntity
8
0
100
AcDbCircle
10
-297.815
20
23.495000000000005
30
0
40
0.74929999999999997
210
0
220
0
230
1
0
CIRCLE
5
422
100
AcDbEntity
8
0
100
AcDbCircle
10
-274.0025
20
23.495000000000005
30
0
40
0.74929999999999997
210
0
220
0
230
1
0
CIRCLE
5
423
100
AcDbEntity
8
0
100
AcDbCircle
10
-297.77499999999998
20
17.024999999999999
30
0
40
0.5
210
0
220
0
230
1
0
CIRCLE
5
424
100
AcDbEntity
8
0
100
AcDbCircle
10
-295.27499999999998
20
17.024999999999999
30
0
40
0.5
210
0
220
0
230
1
0
CIRCLE
5
425
100
AcDbEntity
8
0
100
AcDbCircle
10
-292.77499999999998
20
17.024999999999999
30
0
40
0.5
210
0
220
0
230
1
0
CIRCLE
5
426
100
AcDbEntity
8
0
100
AcDbCircle
10
-278.63799999999998
20
17.780000000000001
30
0
40
1.9939
210
0
220
0
230
1
0
CIRCLE
5
427
100
AcDbEntity
8
0
100
AcDbCircle
10
-250.19000000000003
20
23.495000000000005
30
0
40
0.74929999999999997
210
0
220
0
230
1
0
CIRCLE
5
428
100
AcDbEntity
8
0
100
AcDbCircle
10
-231.14000000000001
20
23.495000000000005
30
0
40
0.74929999999999997
210
0
220
0
230
1
0
CIRCLE
5
429
100
AcDbEntity
8
0
100
AcDbCircle
10
-254.76200000000003
20
17.780000000000001
30
0
40
1.9939
210
0
220
0
230
1
0
LWPOLYLINE
5
430
100
AcDbEntity
8
0
100
AcDbPolyline
90
4
70
1
43
0.0
10
-301.625
20
8.875
42
0.88883194401120813
10
-300.14564054084479
20
8.7002579634411266
42
0.77786812409967454
10
-300.14564054084025
20
10.349742036539959
42
0.88883194402281585
10
-301.625
20
10.175000000000001
0
CIRCLE
5
431
100
AcDbEntity
8
0
100
AcDbCircle
10
-295.27499999999998
20
9.5250000000000021
30
0
40
1.9939
210
0
220
0
230
1
0
LWPOLYLINE
5
432
100
AcDbEntity
8
0
100
AcDbPolyline
90
4
70
1
43
0.0
10
-290.4043594591547
20
8.7002579634388653
42
0.88883194400982268
10
-288.92500000000001
20
8.8750000000000018
10
-288.92500000000001
20
10.175000000000001
42
0.88883194401534626
10
-290.40435945916352
20
10.349742036553717
42
0.77786812410008788
0
CIRCLE
5
433
100
AcDbEntity
8
0
100
AcDbCircle
10
-291.46499999999997
20
6.9850000000000012
30
0
40
0.74929999999999997
210
0
220
0
230
1
0
CIRCLE
5
434
100
AcDbEntity
8
0
100
AcDbCircle
10
-281.30500000000001
20
9.5250000000000021
30
0
40
0.85089999999999999
210
0
220
0
230
1
0
CIRCLE
5
435
100
AcDbEntity
8
0
100
AcDbCircle
10
-276.22500000000002
20
9.5250000000000021
30
0
40
1.9939
210
0
220
0
230
1
0
LWPOLYLINE
5
436
100
AcDbEntity
8
0
100
AcDbPolyline
90
2
70
1
43
0.0
10
-271.46249999999986
20
10.314445729610302
42
1.4800257398021017
10
-271.46249999999986
20
8.7355542703897022
42
1.4800257398017309
0
CIRCLE
5
437
100
AcDbEntity
8
0
100
AcDbCircle
10
-266.70000000000005
20
9.5250000000000021
30
0
40
1.9939
210
0
220
0
230
1
0
CIRCLE
5
438
100
AcDbEntity
8
0
100
AcDbCircle
10
-272.41500000000002
20
6.9850000000000012
30
0
40
0.74929999999999997
210
0
220
0
230
1
0
CIRCLE
5
439
100
AcDbEntity
8
0
100
AcDbCircle
10
-297.815
20
4.4450000000000003
30
0
40
0.74929999999999997
210
0
220
0
230
1
0
CIRCLE
5
440
100
AcDbEntity
8
0
100
AcDbCircle
10
-297.77499999999998
20
2.5249999999999999
30
0
40
0.5
210
0
220
0
230
1
0
CIRCLE
5
441
100
AcDbEntity
8
0
100
AcDbCircle
10
-292.77499999999998
20
2.5249999999999999
30
0
40
0.5
210
0
220
0
230
1
0
CIRCLE
5
442
100
AcDbEntity
8
0
100
AcDbCircle
10
-269.24000000000001
20
4.4450000000000003
30
0
40
0.74929999999999997
210
0
220
0
230
1
0
LWPOLYLINE
5
443
100
AcDbEntity
8
0
100
AcDbPolyline
90
2
70
1
43
0.0
10
-278.1695078368615
20
3.9902038108771523
42
2.203679609735385
10
-279.29485114543394
20
3.9151809236330601
42
5.2131948099401022
0
LWPOLYLINE
5
444
100
AcDbEntity
8
0
100
AcDbPolyline
90
2
70
1
43
0.0
10
-261.93749999999989
20
10.314445729610302
42
1.4800257398021017
10
-261.93749999999989
20
8.7355542703897022
42
1.4800257398017309
0
CIRCLE
5
445
100
AcDbEntity
8
0
100
AcDbCircle
10
-257.17500000000001
20
9.5250000000000021
30
0
40
1.9939
210
0
220
0
230
1
0
CIRCLE
5
446
100
AcDbEntity
8
0
100
AcDbCircle
10
-252.09500000000003
20
9.5250000000000021
30
0
40
0.85089999999999999
210
0
220
0
230
1
0
CIRCLE
5
447
100
AcDbEntity
8
0
100
AcDbCircle
10
-262.88999999999999
20
6.9850000000000012
30
0
40
0.74929999999999997
210
0
220
0
230
1
0
CIRCLE
5
448
100
AcDbEntity
8
0
100
AcDbCircle
10
-253.36500000000001
20
6.9850000000000012
30
0
40
0.74929999999999997
210
0
220
0
230
1
0
CIRCLE
5
449
100
AcDbEntity
8
0
100
AcDbCircle
10
-243.20500000000004
20
9.5250000000000021
30
0
40
0.85089999999999999
210
0
220
0
230
1
0
CIRCLE
5
450
100
AcDbEntity
8
0
100
AcDbCircle
10
-238.125
20
9.5250000000000021
30
0
40
1.9939
210
0
220
0
230
1
0
CIRCLE
5
451
100
AcDbEntity
8
0
100
AcDbCircle
10
-233.04500000000002
20
9.5250000000000021
30
0
40
0.85089999999999999
210
0
220
0
230
1
0
CIRCLE
5
452
100
AcDbEntity
8
0
100
AcDbCircle
10
-234.315
20
6.9850000000000012
30
0
40
0.74929999999999997
210
0
220
0
230
1
0
CIRCLE
5
453
100
AcDbEntity
8
0
100
AcDbCircle
10
-259.71499999999997
20
4.4450000000000003
30
0
40
0.74929999999999997
210
0
220
0
230
1
0
CIRCLE
5
454
100
AcDbEntity
8
0
100
AcDbCircle
10
-254.76200000000003
20
2.54
30
0
40
1.5239999999999998
210
0
220
0
230
1
0
CIRCLE
5
455
100
AcDbEntity
8
0
100
AcDbCircle
10
-240.66500000000002
20
4.4450000000000003
30
0
40
0.74929999999999997
210
0
220
0
230
1
0
CIRCLE
5
456
100
AcDbEntity
8
0
100
AcDbCircle
10
-212.09000000000003
20
23.495000000000005
30
0
40
0.74929999999999997
210
0
220
0
230
1
0
CIRCLE
5
457
100
AcDbEntity
8
0
100
AcDbCircle
10
-193.04000000000002
20
23.495000000000005
30
0
40
0.74929999999999997
210
0
220
0
230
1
0
CIRCLE
5
458
100
AcDbEntity
8
0
100
AcDbCircle
10
-173.99000000000001
20
23.495000000000005
30
0
40
0.74929999999999997
210
0
220
0
230
1
0
CIRCLE
5
459
100
AcDbEntity
8
0
100
AcDbCircle
10
-154.94
20
23.495000000000005
30
0
40
0.74929999999999997
210
0
220
0
230
1
0
CIRCLE
5
460
100
AcDbEntity
8
0
100
AcDbCircle
10
-224.15500000000003
20
9.5250000000000021
30
0
40
0.85089999999999999
210
0
220
0
230
1
0
CIRCLE
5
461
100
AcDbEntity
8
0
100
AcDbCircle
10
-219.07499999999999
20
9.5250000000000021
30
0
40
1.9939
210
0
220
0
230
1
0
CIRCLE
5
462
100
AcDbEntity
8
0
100
AcDbCircle
10
-213.99500000000003
20
9.5250000000000021
30
0
40
0.85089999999999999
210
0
220
0
230
1
0
CIRCLE
5
463
100
AcDbEntity
8
0
100
AcDbCircle
10
-215.26499999999999
20
6.9850000000000012
30
0
40
0.74929999999999997
210
0
220
0
230
1
0
CIRCLE
5
464
100
AcDbEntity
8
0
100
AcDbCircle
10
-205.10500000000002
20
9.5250000000000021
30
0
40
0.85089999999999999
210
0
220
0
230
1
0
CIRCLE
5
465
100
AcDbEntity
8
0
100
AcDbCircle
10
-200.02500000000001
20
9.5250000000000021
30
0
40
1.9939
210
0
220
0
230
1
0
CIRCLE
5
466
100
AcDbEntity
8
0
100
AcDbCircle
10
-194.94500000000002
20
9.5250000000000021
30
0
40
0.85089999999999999
210
0
220
0
230
1
0
CIRCLE
5
467
100
AcDbEntity
8
0
100
AcDbCircle
10
-196.215
20
6.9850000000000012
30
0
40
0.74929999999999997
210
0
220
0
230
1
0
CIRCLE
5
468
100
AcDbEntity
8
0
100
AcDbCircle
10
-221.61500000000004
20
4.4450000000000003
30
0
40
0.74929999999999997
210
0
220
0
230
1
0
CIRCLE
5
469
100
AcDbEntity
8
0
100
AcDbCircle
10
-202.56500000000003
20
4.4450000000000003
30
0
40
0.74929999999999997
210
0
220
0
230
1
0
CIRCLE
5
470
100
AcDbEntity
8
0
100
AcDbCircle
10
-186.05500000000004
20
9.5250000000000021
30
0
40
0.85089999999999999
210
0
220
0
230
1
0
CIRCLE
5
471
100
AcDbEntity
8
0
100
AcDbCircle
10
-180.97499999999999
20
9.5250000000000021
30
0
40
1.9939
210
0
220
0
230
1
0
CIRCLE
5
472
100
AcDbEntity
8
0
100
AcDbCircle
10
-175.89500000000001
20
9.5250000000000021
30
0
40
0.85089999999999999
210
0
220
0
230
1
0
CIRCLE
5
473
100
AcDbEntity
8
0
100
AcDbCircle
10
-177.16499999999999
20
6.9850000000000012
30
0
40
0.74929999999999997
210
0
220
0
230
1
0
CIRCLE
5
474
100
AcDbEntity
8
0
100
AcDbCircle
10
-167.00500000000002
20
9.5250000000000021
30
0
40
0.85089999999999999
210
0
220
0
230
1
0
CIRCLE
5
475
100
AcDbEntity
8
0
100
AcDbCircle
10
-161.92500000000001
20
9.5250000000000021
30
0
40
1.9939
210
0
220
0
230
1
0
CIRCLE
5
476
100
AcDbEntity
8
0
100
AcDbCircle
10
-156.845
20
9.5250000000000021
30
0
40
0.85089999999999999
210
0
220
0
230
1
0
CIRCLE
5
477
100
AcDbEntity
8
0
100
AcDbCircle
10
-158.11500000000001
20
6.9850000000000012
30
0
40
0.74929999999999997
210
0
220
0
230
1
0
CIRCLE
5
478
100
AcDbEntity
8
0
100
AcDbCircle
10
-183.51499999999999
20
4.4450000000000003
30
0
40
0.74929999999999997
210
0
220
0
230
1
0
CIRCLE
5
479
100
AcDbEntity
8
0
100
AcDbCircle
10
-164.465
20
4.4450000000000003
30
0
40
0.74929999999999997
210
0
220
0
230
1
0
CIRCLE
5
480
100
AcDbEntity
8
0
100
AcDbCircle
10
-134.30250000000001
20
45.085000000000008
30
0
40
0.74929999999999997
210
0
220
0
230
1
0
CIRCLE
5
481
100
AcDbEntity
8
0
100
AcDbCircle
10
-140.6525
20
42.545000000000002
30
0
40
0.74929999999999997
210
0
220
0
230
1
0
CIRCLE
5
482
100
AcDbEntity
8
0
100
AcDbCircle
10
-115.2525
20
45.085000000000008
30
0
40
0.74929999999999997
210
0
220
0
230
1
0
CIRCLE
5
483
100
AcDbEntity
8
0
100
AcDbCircle
10
-121.60250000000002
20
42.545000000000002
30
0
40
0.74929999999999997
210
0
220
0
230
1
0
CIRCLE
5
484
100
AcDbEntity
8
0
100
AcDbCircle
10
-102.55250000000001
20
42.545000000000002
30
0
40
0.74929999999999997
210
0
220
0
230
1
0
CIRCLE
5
485
100
AcDbEntity
8
0
100
AcDbCircle
10
-96.202500000000001
20
45.085000000000008
30
0
40
0.74929999999999997
210
0
220
0
230
1
0
CIRCLE
5
486
100
AcDbEntity
8
0
100
AcDbCircle
10
-83.502500000000012
20
42.545000000000002
30
0
40
0.74929999999999997
210
0
220
0
230
1
0
CIRCLE
5
487
100
AcDbEntity
8
0
100
AcDbCircle
10
-152.40000000000003
20
28.574999999999999
30
0
40
1.9939
210
0
220
0
230
1
0
CIRCLE
5
488
100
AcDbEntity
8
0
100
AcDbCircle
10
-147.31999999999999
20
28.574999999999999
30
0
40
0.85089999999999999
210
0
220
0
230
1
0
CIRCLE
5
489
100
AcDbEntity
8
0
100
AcDbCircle
10
-138.43000000000001
20
28.574999999999999
30
0
40
0.85089999999999999
210
0
220
0
230
1
0
CIRCLE
5
490
100
AcDbEntity
8
0
100
AcDbCircle
10
-148.59000000000003
20
26.035000000000004
30
0
40
0.74929999999999997
210
0
220
0
230
1
0
CIRCLE
5
491
100
AcDbEntity
8
0
100
AcDbCircle
10
-133.35000000000002
20
28.574999999999999
30
0
40
1.9939
210
0
220
0
230
1
0
CIRCLE
5
492
100
AcDbEntity
8
0
100
AcDbCircle
10
-128.27000000000001
20
28.574999999999999
30
0
40
0.85089999999999999
210
0
220
0
230
1
0
CIRCLE
5
493
100
AcDbEntity
8
0
100
AcDbCircle
10
-119.38000000000001
20
28.574999999999999
30
0
40
0.85089999999999999
210
0
220
0
230
1
0
CIRCLE
5
494
100
AcDbEntity
8
0
100
AcDbCircle
10
-129.54000000000002
20
26.035000000000004
30
0
40
0.74929999999999997
210
0
220
0
230
1
0
CIRCLE
5
495
100
AcDbEntity
8
0
100
AcDbCircle
10
-114.3
20
28.574999999999999
30
0
40
1.9939
210
0
220
0
230
1
0
CIRCLE
5
496
100
AcDbEntity
8
0
100
AcDbCircle
10
-109.22
20
28.574999999999999
30
0
40
0.85089999999999999
210
0
220
0
230
1
0
CIRCLE
5
497
100
AcDbEntity
8
0
100
AcDbCircle
10
-100.33000000000001
20
28.574999999999999
30
0
40
0.85089999999999999
210
0
220
0
230
1
0
CIRCLE
5
498
100
AcDbEntity
8
0
100
AcDbCircle
10
-110.48999999999999
20
26.035000000000004
30
0
40
0.74929999999999997
210
0
220
0
230
1
0
CIRCLE
5
499
100
AcDbEntity
8
0
100
AcDbCircle
10
-95.25
20
28.574999999999999
30
0
40
1.9939
210
0
220
0
230
1
0
CIRCLE
5
500
100
AcDbEntity
8
0
100
AcDbCircle
10
-90.170000000000016
20
28.574999999999999
30
0
40
0.85089999999999999
210
0
220
0
230
1
0
CIRCLE
5
501
100
AcDbEntity
8
0
100
AcDbCircle
10
-81.280000000000001
20
28.574999999999999
30
0
40
0.85089999999999999
210
0
220
0
230
1
0
CIRCLE
5
502
100
AcDbEntity
8
0
100
AcDbCircle
10
-91.439999999999998
20
26.035000000000004
30
0
40
0.74929999999999997
210
0
220
0
230
1
0
CIRCLE
5
503
100
AcDbEntity
8
0
100
AcDbCircle
10
-77.152500000000003
20
45.085000000000008
30
0
40
0.74929999999999997
210
0
220
0
230
1
0
CIRCLE
5
504
100
AcDbEntity
8
0
100
AcDbCircle
10
-64.452500000000001
20
42.545000000000002
30
0
40
0.74929999999999997
210
0
220
0
230
1
0
CIRCLE
5
505
100
AcDbEntity
8
0
100
AcDbCircle
10
-58.102499999999999
20
45.085000000000008
30
0
40
0.74929999999999997
210
0
220
0
230
1
0
CIRCLE
5
506
100
AcDbEntity
8
0
100
AcDbCircle
10
-45.402535999999998
20
42.54504
30
0
40
0.74929999999999997
210
0
220
0
230
1
0
CIRCLE
5
507
100
AcDbEntity
8
0
100
AcDbCircle
10
-39.052536000000003
20
45.085040000000006
30
0
40
0.74929999999999997
210
0
220
0
230
1
0
LWPOLYLINE
5
508
100
AcDbEntity
8
0
100
AcDbPolyline
90
2
70
1
43
0.0
10
-12.773195613876393
20
45.829438106725291
42
8.1447794056102882
10
-12.433753729466359
20
45.702143524492378
42
21.954561853767519
0
CIRCLE
5
509
100
AcDbEntity
8
0
100
AcDbCircle
10
-8.0962500000000013
20
45.085000000000008
30
0
40
0.74929999999999997
210
0
220
0
230
1
0
CIRCLE
5
510
100
AcDbEntity
8
0
100
AcDbCircle
10
-19.208764000000002
20
42.54504
30
0
40
0.74929999999999997
210
0
220
0
230
1
0
CIRCLE
5
511
100
AcDbEntity
8
0
100
AcDbCircle
10
-14.446250000000001
20
42.545000000000002
30
0
40
0.74929999999999997
210
0
220
0
230
1
0
CIRCLE
5
512
100
AcDbEntity
8
0
100
AcDbCircle
10
-76.200000000000017
20
28.574999999999999
30
0
40
1.9939
210
0
220
0
230
1
0
CIRCLE
5
513
100
AcDbEntity
8
0
100
AcDbCircle
10
-71.120000000000005
20
28.574999999999999
30
0
40
0.85089999999999999
210
0
220
0
230
1
0
CIRCLE
5
514
100
AcDbEntity
8
0
100
AcDbCircle
10
-62.229999999999997
20
28.574999999999999
30
0
40
0.85089999999999999
210
0
220
0
230
1
0
CIRCLE
5
515
100
AcDbEntity
8
0
100
AcDbCircle
10
-72.390000000000015
20
26.035000000000004
30
0
40
0.74929999999999997
210
0
220
0
230
1
0
CIRCLE
5
516
100
AcDbEntity
8
0
100
AcDbCircle
10
-57.149999999999999
20
28.574999999999999
30
0
40
1.9939
210
0
220
0
230
1
0
CIRCLE
5
517
100
AcDbEntity
8
0
100
AcDbCircle
10
-52.070000000000007
20
28.574999999999999
30
0
40
0.85089999999999999
210
0
220
0
230
1
0
CIRCLE
5
518
100
AcDbEntity
8
0
100
AcDbCircle
10
-43.180000000000007
20
28.574999999999999
30
0
40
0.85089999999999999
210
0
220
0
230
1
0
CIRCLE
5
519
100
AcDbEntity
8
0
100
AcDbCircle
10
-53.340000000000003
20
26.035000000000004
30
0
40
0.74929999999999997
210
0
220
0
230
1
0
CIRCLE
5
520
100
AcDbEntity
8
0
100
AcDbCircle
10
-38.100000000000009
20
28.574999999999999
30
0
40
1.9939
210
0
220
0
230
1
0
CIRCLE
5
521
100
AcDbEntity
8
0
100
AcDbCircle
10
-33.020000000000003
20
28.574999999999999
30
0
40
0.85089999999999999
210
0
220
0
230
1
0
CIRCLE
5
522
100
AcDbEntity
8
0
100
AcDbCircle
10
-25.003146000000001
20
28.575023999999999
30
0
40
1.25
210
0
220
0
230
1
0
CIRCLE
5
523
100
AcDbEntity
8
0
100
AcDbCircle
10
-34.290000000000006
20
26.035000000000004
30
0
40
0.74929999999999997
210
0
220
0
230
1
0
CIRCLE
5
524
100
AcDbEntity
8
0
100
AcDbCircle
10
-19.3675
20
28.574999999999999
30
0
40
0.85089999999999999
210
0
220
0
230
1
0
CIRCLE
5
525
100
AcDbEntity
8
0
100
AcDbCircle
10
-14.2875
20
28.574999999999999
30
0
40
1.9939
210
0
220
0
230
1
0
CIRCLE
5
526
100
AcDbEntity
8
0
100
AcDbCircle
10
-9.2074999999999996
20
28.574999999999999
30
0
40
0.85089999999999999
210
0
220
0
230
1
0
CIRCLE
5
527
100
AcDbEntity
8
0
100
AcDbCircle
10
-10.477499999999999
20
26.035000000000004
30
0
40
0.74929999999999997
210
0
220
0
230
1
0
CIRCLE
5
528
100
AcDbEntity
8
0
100
AcDbCircle
10
-135.88999999999999
20
23.495000000000005
30
0
40
0.74929999999999997
210
0
220
0
230
1
0
CIRCLE
5
529
100
AcDbEntity
8
0
100
AcDbCircle
10
-116.84
20
23.495000000000005
30
0
40
0.74929999999999997
210
0
220
0
230
1
0
CIRCLE
5
530
100
AcDbEntity
8
0
100
AcDbCircle
10
-97.79000000000002
20
23.495000000000005
30
0
40
0.74929999999999997
210
0
220
0
230
1
0
CIRCLE
5
531
100
AcDbEntity
8
0
100
AcDbCircle
10
-78.739999999999995
20
23.495000000000005
30
0
40
0.74929999999999997
210
0
220
0
230
1
0
CIRCLE
5
532
100
AcDbEntity
8
0
100
AcDbCircle
10
-147.95500000000001
20
9.5250000000000021
30
0
40
0.85089999999999999
210
0
220
0
230
1
0
CIRCLE
5
533
100
AcDbEntity
8
0
100
AcDbCircle
10
-142.875
20
9.5250000000000021
30
0
40
1.9939
210
0
220
0
230
1
0
CIRCLE
5
534
100
AcDbEntity
8
0
100
AcDbCircle
10
-137.79499999999999
20
9.5250000000000021
30
0
40
0.85089999999999999
210
0
220
0
230
1
0
CIRCLE
5
535
100
AcDbEntity
8
0
100
AcDbCircle
10
-139.065
20
6.9850000000000012
30
0
40
0.74929999999999997
210
0
220
0
230
1
0
CIRCLE
5
536
100
AcDbEntity
8
0
100
AcDbCircle
10
-128.905
20
9.5250000000000021
30
0
40
0.85089999999999999
210
0
220
0
230
1
0
CIRCLE
5
537
100
AcDbEntity
8
0
100
AcDbCircle
10
-123.825
20
9.5250000000000021
30
0
40
1.9939
210
0
220
0
230
1
0
CIRCLE
5
538
100
AcDbEntity
8
0
100
AcDbCircle
10
-118.745
20
9.5250000000000021
30
0
40
0.85089999999999999
210
0
220
0
230
1
0
CIRCLE
5
539
100
AcDbEntity
8
0
100
AcDbCircle
10
-120.015
20
6.9850000000000012
30
0
40
0.74929999999999997
210
0
220
0
230
1
0
CIRCLE
5
540
100
AcDbEntity
8
0
100
AcDbCircle
10
-145.41499999999999
20
4.4450000000000003
30
0
40
0.74929999999999997
210
0
220
0
230
1
0
CIRCLE
5
541
100
AcDbEntity
8
0
100
AcDbCircle
10
-126.36499999999999
20
4.4450000000000003
30
0
40
0.74929999999999997
210
0
220
0
230
1
0
CIRCLE
5
542
100
AcDbEntity
8
0
100
AcDbCircle
10
-109.85500000000002
20
9.5250000000000021
30
0
40
0.85089999999999999
210
0
220
0
230
1
0
CIRCLE
5
543
100
AcDbEntity
8
0
100
AcDbCircle
10
-104.77500000000001
20
9.5250000000000021
30
0
40
1.9939
210
0
220
0
230
1
0
CIRCLE
5
544
100
AcDbEntity
8
0
100
AcDbCircle
10
-99.694999999999993
20
9.5250000000000021
30
0
40
0.85089999999999999
210
0
220
0
230
1
0
CIRCLE
5
545
100
AcDbEntity
8
0
100
AcDbCircle
10
-100.965
20
6.9850000000000012
30
0
40
0.74929999999999997
210
0
220
0
230
1
0
CIRCLE
5
546
100
AcDbEntity
8
0
100
AcDbCircle
10
-90.805000000000007
20
9.5250000000000021
30
0
40
0.85089999999999999
210
0
220
0
230
1
0
CIRCLE
5
547
100
AcDbEntity
8
0
100
AcDbCircle
10
-85.724999999999994
20
9.5250000000000021
30
0
40
1.9939
210
0
220
0
230
1
0
CIRCLE
5
548
100
AcDbEntity
8
0
100
AcDbCircle
10
-80.64500000000001
20
9.5250000000000021
30
0
40
0.85089999999999999
210
0
220
0
230
1
0
CIRCLE
5
549
100
AcDbEntity
8
0
100
AcDbCircle
10
-81.91500000000002
20
6.9850000000000012
30
0
40
0.74929999999999997
210
0
220
0
230
1
0
CIRCLE
5
550
100
AcDbEntity
8
0
100
AcDbCircle
10
-107.315
20
4.4450000000000003
30
0
40
0.74929999999999997
210
0
220
0
230
1
0
CIRCLE
5
551
100
AcDbEntity
8
0
100
AcDbCircle
10
-88.265000000000015
20
4.4450000000000003
30
0
40
0.74929999999999997
210
0
220
0
230
1
0
CIRCLE
5
552
100
AcDbEntity
8
0
100
AcDbCircle
10
-59.690000000000005
20
23.495000000000005
30
0
40
0.74929999999999997
210
0
220
0
230
1
0
CIRCLE
5
553
100
AcDbEntity
8
0
100
AcDbCircle
10
-40.640000000000001
20
23.495000000000005
30
0
40
0.74929999999999997
210
0
220
0
230
1
0
CIRCLE
5
554
100
AcDbEntity
8
0
100
AcDbCircle
10
-16.827500000000001
20
23.495000000000005
30
0
40
0.74929999999999997
210
0
220
0
230
1
0
CIRCLE
5
555
100
AcDbEntity
8
0
100
AcDbCircle
10
-71.754999999999995
20
9.5250000000000021
30
0
40
0.85089999999999999
210
0
220
0
230
1
0
CIRCLE
5
556
100
AcDbEntity
8
0
100
AcDbCircle
10
-66.675000000000011
20
9.5250000000000021
30
0
40
1.9939
210
0
220
0
230
1
0
CIRCLE
5
557
100
AcDbEntity
8
0
100
AcDbCircle
10
-61.595000000000006
20
9.5250000000000021
30
0
40
0.85089999999999999
210
0
220
0
230
1
0
CIRCLE
5
558
100
AcDbEntity
8
0
100
AcDbCircle
10
-62.865000000000002
20
6.9850000000000012
30
0
40
0.74929999999999997
210
0
220
0
230
1
0
CIRCLE
5
559
100
AcDbEntity
8
0
100
AcDbCircle
10
-52.704999999999998
20
9.5250000000000021
30
0
40
0.85089999999999999
210
0
220
0
230
1
0
CIRCLE
5
560
100
AcDbEntity
8
0
100
AcDbCircle
10
-47.625
20
9.5250000000000021
30
0
40
1.9939
210
0
220
0
230
1
0
CIRCLE
5
561
100
AcDbEntity
8
0
100
AcDbCircle
10
-42.545000000000002
20
9.5250000000000021
30
0
40
0.85089999999999999
210
0
220
0
230
1
0
CIRCLE
5
562
100
AcDbEntity
8
0
100
AcDbCircle
10
-43.814999999999998
20
6.9850000000000012
30
0
40
0.74929999999999997
210
0
220
0
230
1
0
CIRCLE
5
563
100
AcDbEntity
8
0
100
AcDbCircle
10
-69.215000000000003
20
4.4450000000000003
30
0
40
0.74929999999999997
210
0
220
0
230
1
0
CIRCLE
5
564
100
AcDbEntity
8
0
100
AcDbCircle
10
-50.165000000000006
20
4.4450000000000003
30
0
40
0.74929999999999997
210
0
220
0
230
1
0
CIRCLE
5
565
100
AcDbEntity
8
0
100
AcDbCircle
10
-33.655000000000001
20
9.5250000000000021
30
0
40
0.85089999999999999
210
0
220
0
230
1
0
CIRCLE
5
566
100
AcDbEntity
8
0
100
AcDbCircle
10
-28.574999999999999
20
9.5250000000000021
30
0
40
1.9939
210
0
220
0
230
1
0
CIRCLE
5
567
100
AcDbEntity
8
0
100
AcDbCircle
10
-23.495000000000005
20
9.5250000000000021
30
0
40
0.85089999999999999
210
0
220
0
230
1
0
CIRCLE
5
568
100
AcDbEntity
8
0
100
AcDbCircle
10
-24.765000000000001
20
6.9850000000000012
30
0
40
0.74929999999999997
210
0
220
0
230
1
0
CIRCLE
5
569
100
AcDbEntity
8
0
100
AcDbCircle
10
-14.605
20
9.5250000000000021
30
0
40
0.85089999999999999
210
0
220
0
230
1
0
CIRCLE
5
570
100
AcDbEntity
8
0
100
AcDbCircle
10
-9.5250000000000021
20
9.5250000000000021
30
0
40
1.9939
210
0
220
0
230
1
0
CIRCLE
5
571
100
AcDbEntity
8
0
100
AcDbCircle
10
-4.4450000000000003
20
9.5250000000000021
30
0
40
0.85089999999999999
210
0
220
0
230
1
0
CIRCLE
5
572
100
AcDbEntity
8
0
100
AcDbCircle
10
-5.7149999999999999
20
6.9850000000000012
30
0
40
0.74929999999999997
210
0
220
0
230
1
0
LWPOLYLINE
5
573
100
AcDbEntity
8
0
100
AcDbPolyline
90
4
70
1
43
0.0
10
-23.420000000000002
20
4.5800000000000001
42
0.99999999999999989
10
-22.820000000000004
20
4.5800000000000001
10
-22.820000000000004
20
5.6799999999999997
42
0.99999999999999989
10
-23.420000000000002
20
5.6799999999999997
0
CIRCLE
5
574
100
AcDbEntity
8
0
100
AcDbCircle
10
-31.114999999999998
20
4.4450000000000003
30
0
40
0.74929999999999997
210
0
220
0
230
1
0
LWPOLYLINE
5
575
100
AcDbEntity
8
0
100
AcDbPolyline
90
4
70
1
43
0.0
10
-23.420000000000002
20
0.65000000000000002
42
0.99999999999999989
10
-22.820000000000004
20
0.65000000000000002
10
-22.820000000000004
20
1.25
42
0.99999999999999989
10
-23.420000000000002
20
1.25
0
LWPOLYLINE
5
576
100
AcDbEntity
8
0
100
AcDbPolyline
90
4
70
1
43
0.0
10
-14.780000000000001
20
4.5800000000000001
42
0.99999999999999989
10
-14.180000000000001
20
4.5800000000000001
10
-14.180000000000001
20
5.6799999999999997
42
0.99999999999999989
10
-14.779999999999999
20
5.6799999999999997
0
CIRCLE
5
577
100
AcDbEntity
8
0
100
AcDbCircle
10
-21.690000000000001
20
4.5999999999999996
30
0
40
0.32500000000000001
210
0
220
0
230
1
0
CIRCLE
5
578
100
AcDbEntity
8
0
100
AcDbCircle
10
-15.910000000000002
20
4.5999999999999996
30
0
40
0.32500000000000001
210
0
220
0
230
1
0
CIRCLE
5
579
100
AcDbEntity
8
0
100
AcDbCircle
10
-12.065000000000001
20
4.4450000000000003
30
0
40
0.74929999999999997
210
0
220
0
230
1
0
LWPOLYLINE
5
580
100
AcDbEntity
8
0
100
AcDbPolyline
90
4
70
1
43
0.0
10
-14.780000000000001
20
0.65000000000000002
42
0.99999999999999989
10
-14.180000000000001
20
0.65000000000000002
10
-14.180000000000001
20
1.25
42
0.99999999999999989
10
-14.779999999999999
20
1.25
0
ENDSEC
0
SECTION
2
OBJECTS
0
DICTIONARY
5
C
100
AcDbDictionary
3
ACAD_GROUP
350
D
3
ACAD_MLINESTYLE
350
17
0
DICTIONARY
5
D
100
AcDbDictionary
0
DICTIONARY
5
1A
330
C
100
AcDbDictionary
0
DICTIONARY
5
17
100
AcDbDictionary
0
ENDSEC
0
EOF
